<svg width="1154" height="950" viewBox="0 0 1154 950" fill="none" xmlns="http://www.w3.org/2000/svg">
<g clip-path="url(#clip0_94_80)">
<path d="M1154 0H0V950H1154V0Z" fill="url(#paint0_radial_94_80)"/>
<g opacity="0.3" filter="url(#filter0_f_94_80)">
<path d="M792.592 525.545H703.505L622.244 341.135L620.481 525.545H552.771L551.008 341.135L469.747 525.545H380.66L589.594 78.2031L792.592 525.545Z" fill="#6F83A8"/>
</g>
<g opacity="0.11" filter="url(#filter1_f_94_80)">
<path d="M792.592 520.767H703.505L622.244 336.358L620.481 520.767H552.771L551.008 336.358L469.747 520.767H380.66L589.594 73.4258L792.592 520.767Z" fill="#5F9BFA"/>
<mask id="mask0_94_80" style="mask-type:luminance" maskUnits="userSpaceOnUse" x="380" y="73" width="413" height="448">
<g opacity="0.11">
<path d="M792.592 520.767H703.505L622.244 336.358L620.481 520.767H552.771L551.008 336.358L469.747 520.767H380.66L589.594 73.4258L792.592 520.767Z" fill="white"/>
</g>
</mask>
<g mask="url(#mask0_94_80)">
<path d="M792.592 520.767V544.048H828.396L813.41 511.021L792.592 520.767ZM703.505 520.767L682.585 530.279L688.653 544.048H703.505V520.767ZM622.244 336.357L643.163 326.844L599.325 336.13L622.244 336.357ZM620.481 520.767V544.048H643.179L643.399 520.993L620.481 520.767ZM552.771 520.767L529.852 520.993L530.072 544.048H552.771V520.767ZM551.008 336.357L573.927 336.131L530.088 326.844L551.008 336.357ZM469.747 520.767V544.048H484.599L490.666 530.279L469.747 520.767ZM380.66 520.767L359.953 510.787L344.418 544.048H380.66V520.767ZM589.594 73.4248L610.408 63.6784L589.893 18.4688L568.886 63.4452L589.594 73.4248ZM792.592 520.767V497.485H703.505V520.767V544.048H792.592V520.767ZM703.505 520.767L724.425 511.255L643.163 326.844L622.244 336.357L601.324 345.869L682.585 530.279L703.505 520.767ZM622.244 336.357L599.325 336.13L597.562 520.541L620.481 520.767L643.399 520.993L645.163 336.583L622.244 336.357ZM620.481 520.767V497.485H552.771V520.767V544.048H620.481V520.767ZM552.771 520.767L575.689 520.541L573.927 336.131L551.008 336.357L528.09 336.583L529.852 520.993L552.771 520.767ZM551.008 336.357L530.088 326.844L448.827 511.255L469.747 520.767L490.666 530.279L571.928 345.869L551.008 336.357ZM469.747 520.767V497.485H380.66V520.767V544.048H469.747V520.767ZM380.66 520.767L401.367 530.747L610.301 83.4043L589.594 73.4248L568.886 63.4452L359.953 510.787L380.66 520.767ZM589.594 73.4248L568.778 83.1715L771.777 530.513L792.592 520.767L813.41 511.021L610.408 63.6784L589.594 73.4248Z" fill="#2B3142"/>
</g>
</g>
<mask id="mask1_94_80" style="mask-type:luminance" maskUnits="userSpaceOnUse" x="0" y="162" width="1154" height="747">
<path d="M1154 162.812H0V908.892H1154V162.812Z" fill="white"/>
</mask>
<g mask="url(#mask1_94_80)">
<path opacity="0.75" d="M1154 227.527H0V228.137H1154V227.527Z" fill="url(#paint1_linear_94_80)"/>
<path d="M1154 270.875H0V271.485H1154V270.875Z" fill="url(#paint2_linear_94_80)"/>
<path d="M1154 314.227H0V314.836H1154V314.227Z" fill="url(#paint3_linear_94_80)"/>
<path d="M1154 397.258H0V397.868H1154V397.258Z" fill="url(#paint4_linear_94_80)"/>
<path d="M1154 449.766H0V450.376H1154V449.766Z" fill="url(#paint5_linear_94_80)"/>
<path d="M1154 780.066H0V780.676H1154V780.066Z" fill="url(#paint6_linear_94_80)"/>
<path d="M213.77 65.3281H213.169V797.976H213.77V65.3281Z" fill="url(#paint7_linear_94_80)"/>
<path d="M256.444 65.3281H255.843V797.976H256.444V65.3281Z" fill="url(#paint8_linear_94_80)"/>
<path d="M902.164 86.2891H901.562V818.937H902.164V86.2891Z" fill="url(#paint9_linear_94_80)"/>
<path d="M944.838 86.2891H944.237V818.937H944.838V86.2891Z" fill="url(#paint10_linear_94_80)"/>
<path opacity="0.5" d="M1154 750.148H1153.4V1482.8H1154V750.148Z" fill="url(#paint11_linear_94_80)"/>
</g>
</g>
<defs>
<filter id="filter0_f_94_80" x="207.593" y="-94.8635" width="758.066" height="793.477" filterUnits="userSpaceOnUse" color-interpolation-filters="sRGB">
<feFlood flood-opacity="0" result="BackgroundImageFix"/>
<feBlend mode="normal" in="SourceGraphic" in2="BackgroundImageFix" result="shape"/>
<feGaussianBlur stdDeviation="86.5333" result="effect1_foregroundBlur_94_80"/>
</filter>
<filter id="filter1_f_94_80" x="313.193" y="5.95918" width="546.866" height="582.273" filterUnits="userSpaceOnUse" color-interpolation-filters="sRGB">
<feFlood flood-opacity="0" result="BackgroundImageFix"/>
<feBlend mode="normal" in="SourceGraphic" in2="BackgroundImageFix" result="shape"/>
<feGaussianBlur stdDeviation="33.7333" result="effect1_foregroundBlur_94_80"/>
</filter>
<radialGradient id="paint0_radial_94_80" cx="0" cy="0" r="1" gradientUnits="userSpaceOnUse" gradientTransform="translate(577 475) rotate(90) scale(475 577)">
<stop stop-color="#171C2F"/>
<stop offset="1" stop-color="#04050C"/>
</radialGradient>
<linearGradient id="paint1_linear_94_80" x1="0" y1="227.832" x2="1154" y2="227.832" gradientUnits="userSpaceOnUse">
<stop stop-color="#BAD7F7" stop-opacity="0"/>
<stop offset="0.5" stop-color="#BAD7F7" stop-opacity="0.12"/>
<stop offset="1" stop-color="#BAD7F7" stop-opacity="0"/>
</linearGradient>
<linearGradient id="paint2_linear_94_80" x1="0" y1="271.18" x2="1154" y2="271.18" gradientUnits="userSpaceOnUse">
<stop stop-color="#BAD7F7" stop-opacity="0"/>
<stop offset="0.5" stop-color="#BAD7F7" stop-opacity="0.12"/>
<stop offset="1" stop-color="#BAD7F7" stop-opacity="0"/>
</linearGradient>
<linearGradient id="paint3_linear_94_80" x1="0" y1="314.532" x2="1154" y2="314.532" gradientUnits="userSpaceOnUse">
<stop stop-color="#BAD7F7" stop-opacity="0"/>
<stop offset="0.5" stop-color="#BAD7F7" stop-opacity="0.12"/>
<stop offset="1" stop-color="#BAD7F7" stop-opacity="0"/>
</linearGradient>
<linearGradient id="paint4_linear_94_80" x1="0" y1="397.563" x2="1154" y2="397.563" gradientUnits="userSpaceOnUse">
<stop stop-color="#BAD7F7" stop-opacity="0"/>
<stop offset="0.5" stop-color="#BAD7F7" stop-opacity="0.12"/>
<stop offset="1" stop-color="#BAD7F7" stop-opacity="0"/>
</linearGradient>
<linearGradient id="paint5_linear_94_80" x1="0" y1="450.071" x2="1154" y2="450.071" gradientUnits="userSpaceOnUse">
<stop stop-color="#BAD7F7" stop-opacity="0"/>
<stop offset="0.5" stop-color="#BAD7F7" stop-opacity="0.12"/>
<stop offset="1" stop-color="#BAD7F7" stop-opacity="0"/>
</linearGradient>
<linearGradient id="paint6_linear_94_80" x1="0" y1="780.371" x2="1154" y2="780.371" gradientUnits="userSpaceOnUse">
<stop stop-color="#BAD7F7" stop-opacity="0"/>
<stop offset="0.5" stop-color="#BAD7F7" stop-opacity="0.12"/>
<stop offset="1" stop-color="#BAD7F7" stop-opacity="0"/>
</linearGradient>
<linearGradient id="paint7_linear_94_80" x1="213.47" y1="65.3281" x2="213.47" y2="797.976" gradientUnits="userSpaceOnUse">
<stop offset="0.8" stop-color="#BAD7F7" stop-opacity="0.12"/>
<stop offset="1" stop-color="#BAD7F7" stop-opacity="0"/>
</linearGradient>
<linearGradient id="paint8_linear_94_80" x1="256.144" y1="65.3281" x2="256.144" y2="797.976" gradientUnits="userSpaceOnUse">
<stop offset="0.8" stop-color="#BAD7F7" stop-opacity="0.12"/>
<stop offset="1" stop-color="#BAD7F7" stop-opacity="0"/>
</linearGradient>
<linearGradient id="paint9_linear_94_80" x1="901.867" y1="86.2891" x2="901.867" y2="818.937" gradientUnits="userSpaceOnUse">
<stop offset="0.8" stop-color="#BAD7F7" stop-opacity="0.12"/>
<stop offset="1" stop-color="#BAD7F7" stop-opacity="0"/>
</linearGradient>
<linearGradient id="paint10_linear_94_80" x1="944.541" y1="86.2891" x2="944.541" y2="818.937" gradientUnits="userSpaceOnUse">
<stop offset="0.8" stop-color="#BAD7F7" stop-opacity="0.12"/>
<stop offset="1" stop-color="#BAD7F7" stop-opacity="0"/>
</linearGradient>
<linearGradient id="paint11_linear_94_80" x1="1153.7" y1="750.148" x2="1153.7" y2="1482.8" gradientUnits="userSpaceOnUse">
<stop offset="0.8" stop-color="#BAD7F7" stop-opacity="0.12"/>
<stop offset="1" stop-color="#BAD7F7" stop-opacity="0"/>
</linearGradient>
<clipPath id="clip0_94_80">
<rect width="1154" height="950" fill="white"/>
</clipPath>
</defs>
</svg>
