<svg width="80" height="81" viewBox="0 0 80 81" fill="none" xmlns="http://www.w3.org/2000/svg">
<g opacity="0.4" filter="url(#filter0_f_881_17299)">
<ellipse cx="27.1798" cy="1.30094" rx="0.300937" ry="0.300937" fill="url(#paint0_linear_881_17299)"/>
<ellipse cx="33.6017" cy="1.30094" rx="0.300937" ry="0.300937" fill="url(#paint1_linear_881_17299)"/>
<ellipse cx="40.0197" cy="1.30094" rx="0.300937" ry="0.300937" fill="url(#paint2_linear_881_17299)"/>
<ellipse cx="46.4416" cy="1.30094" rx="0.300937" ry="0.300937" fill="url(#paint3_linear_881_17299)"/>
<ellipse cx="52.8595" cy="1.30094" rx="0.300937" ry="0.300937" fill="url(#paint4_linear_881_17299)"/>
<ellipse cx="20.7619" cy="7.72086" rx="0.300937" ry="0.300937" fill="url(#paint5_linear_881_17299)"/>
<ellipse cx="27.1838" cy="7.72086" rx="0.300937" ry="0.300937" fill="url(#paint6_linear_881_17299)"/>
<ellipse cx="33.6017" cy="7.72086" rx="0.300937" ry="0.300937" fill="url(#paint7_linear_881_17299)"/>
<ellipse cx="40.0236" cy="7.72086" rx="0.300937" ry="0.300937" fill="url(#paint8_linear_881_17299)"/>
<ellipse cx="46.4416" cy="7.72086" rx="0.300937" ry="0.300937" fill="url(#paint9_linear_881_17299)"/>
<ellipse cx="52.8634" cy="7.72086" rx="0.300937" ry="0.300937" fill="url(#paint10_linear_881_17299)"/>
<ellipse cx="59.2814" cy="7.72086" rx="0.300937" ry="0.300937" fill="url(#paint11_linear_881_17299)"/>
<ellipse cx="14.34" cy="14.1408" rx="0.300937" ry="0.300937" fill="url(#paint12_linear_881_17299)"/>
<ellipse cx="20.7619" cy="14.1408" rx="0.300937" ry="0.300937" fill="url(#paint13_linear_881_17299)"/>
<ellipse cx="27.1798" cy="14.1408" rx="0.300937" ry="0.300937" fill="url(#paint14_linear_881_17299)"/>
<ellipse cx="33.6017" cy="14.1408" rx="0.300937" ry="0.300937" fill="url(#paint15_linear_881_17299)"/>
<ellipse cx="40.0197" cy="14.1408" rx="0.300937" ry="0.300937" fill="url(#paint16_linear_881_17299)"/>
<ellipse cx="46.4416" cy="14.1408" rx="0.300937" ry="0.300937" fill="url(#paint17_linear_881_17299)"/>
<ellipse cx="52.8595" cy="14.1408" rx="0.300937" ry="0.300937" fill="url(#paint18_linear_881_17299)"/>
<ellipse cx="59.2814" cy="14.1408" rx="0.300937" ry="0.300937" fill="url(#paint19_linear_881_17299)"/>
<ellipse cx="65.6994" cy="14.1408" rx="0.300937" ry="0.300937" fill="url(#paint20_linear_881_17299)"/>
<ellipse cx="7.92203" cy="20.5607" rx="0.300937" ry="0.300937" fill="url(#paint21_linear_881_17299)"/>
<ellipse cx="14.3439" cy="20.5607" rx="0.300937" ry="0.300937" fill="url(#paint22_linear_881_17299)"/>
<ellipse cx="20.7619" cy="20.5607" rx="0.300937" ry="0.300937" fill="url(#paint23_linear_881_17299)"/>
<ellipse cx="27.1838" cy="20.5607" rx="0.300937" ry="0.300937" fill="url(#paint24_linear_881_17299)"/>
<ellipse cx="33.6017" cy="20.5607" rx="0.300937" ry="0.300937" fill="url(#paint25_linear_881_17299)"/>
<ellipse cx="40.0236" cy="20.5607" rx="0.300937" ry="0.300937" fill="url(#paint26_linear_881_17299)"/>
<ellipse cx="46.4416" cy="20.5607" rx="0.300937" ry="0.300937" fill="url(#paint27_linear_881_17299)"/>
<ellipse cx="52.8634" cy="20.5607" rx="0.300937" ry="0.300937" fill="url(#paint28_linear_881_17299)"/>
<ellipse cx="59.2814" cy="20.5607" rx="0.300937" ry="0.300937" fill="url(#paint29_linear_881_17299)"/>
<ellipse cx="65.7033" cy="20.5607" rx="0.300937" ry="0.300937" fill="url(#paint30_linear_881_17299)"/>
<ellipse cx="72.1212" cy="20.5607" rx="0.300937" ry="0.300937" fill="url(#paint31_linear_881_17299)"/>
<ellipse cx="1.30094" cy="26.9811" rx="0.300937" ry="0.300937" fill="url(#paint32_linear_881_17299)"/>
<ellipse cx="7.72281" cy="26.9811" rx="0.300937" ry="0.300937" fill="url(#paint33_linear_881_17299)"/>
<ellipse cx="14.1408" cy="26.9811" rx="0.300937" ry="0.300937" fill="url(#paint34_linear_881_17299)"/>
<ellipse cx="20.5627" cy="26.9811" rx="0.300937" ry="0.300937" fill="url(#paint35_linear_881_17299)"/>
<ellipse cx="26.9806" cy="26.9811" rx="0.300937" ry="0.300937" fill="url(#paint36_linear_881_17299)"/>
<ellipse cx="33.4025" cy="26.9811" rx="0.300937" ry="0.300937" fill="url(#paint37_linear_881_17299)"/>
<ellipse cx="39.8205" cy="26.9811" rx="0.300937" ry="0.300937" fill="url(#paint38_linear_881_17299)"/>
<ellipse cx="46.2423" cy="26.9811" rx="0.300937" ry="0.300937" fill="url(#paint39_linear_881_17299)"/>
<ellipse cx="52.6603" cy="26.9811" rx="0.300937" ry="0.300937" fill="url(#paint40_linear_881_17299)"/>
<ellipse cx="59.0822" cy="26.9811" rx="0.300937" ry="0.300937" fill="url(#paint41_linear_881_17299)"/>
<ellipse cx="65.5002" cy="26.9811" rx="0.300937" ry="0.300937" fill="url(#paint42_linear_881_17299)"/>
<ellipse cx="71.922" cy="26.9811" rx="0.300937" ry="0.300937" fill="url(#paint43_linear_881_17299)"/>
<ellipse cx="78.34" cy="26.9811" rx="0.300937" ry="0.300937" fill="url(#paint44_linear_881_17299)"/>
<ellipse cx="1.30094" cy="33.401" rx="0.300937" ry="0.300937" fill="url(#paint45_linear_881_17299)"/>
<ellipse cx="7.72281" cy="33.401" rx="0.300937" ry="0.300937" fill="url(#paint46_linear_881_17299)"/>
<ellipse cx="14.1408" cy="33.401" rx="0.300937" ry="0.300937" fill="url(#paint47_linear_881_17299)"/>
<ellipse cx="20.5627" cy="33.401" rx="0.300937" ry="0.300937" fill="url(#paint48_linear_881_17299)"/>
<ellipse cx="26.9806" cy="33.401" rx="0.300937" ry="0.300937" fill="url(#paint49_linear_881_17299)"/>
<ellipse cx="33.4025" cy="33.401" rx="0.300937" ry="0.300937" fill="url(#paint50_linear_881_17299)"/>
<ellipse cx="39.8205" cy="33.401" rx="0.300937" ry="0.300937" fill="url(#paint51_linear_881_17299)"/>
<ellipse cx="46.2423" cy="33.401" rx="0.300937" ry="0.300937" fill="url(#paint52_linear_881_17299)"/>
<ellipse cx="52.6603" cy="33.401" rx="0.300937" ry="0.300937" fill="url(#paint53_linear_881_17299)"/>
<ellipse cx="59.0822" cy="33.401" rx="0.300937" ry="0.300937" fill="url(#paint54_linear_881_17299)"/>
<ellipse cx="65.5002" cy="33.401" rx="0.300937" ry="0.300937" fill="url(#paint55_linear_881_17299)"/>
<ellipse cx="71.922" cy="33.401" rx="0.300937" ry="0.300937" fill="url(#paint56_linear_881_17299)"/>
<ellipse cx="78.34" cy="33.401" rx="0.300937" ry="0.300937" fill="url(#paint57_linear_881_17299)"/>
<ellipse cx="1.30094" cy="39.821" rx="0.300937" ry="0.300937" fill="url(#paint58_linear_881_17299)"/>
<ellipse cx="7.72281" cy="39.821" rx="0.300937" ry="0.300937" fill="url(#paint59_linear_881_17299)"/>
<ellipse cx="14.1408" cy="39.821" rx="0.300937" ry="0.300937" fill="url(#paint60_linear_881_17299)"/>
<ellipse cx="20.5627" cy="39.821" rx="0.300937" ry="0.300937" fill="url(#paint61_linear_881_17299)"/>
<ellipse cx="26.9806" cy="39.821" rx="0.300937" ry="0.300937" fill="url(#paint62_linear_881_17299)"/>
<ellipse cx="33.4025" cy="39.821" rx="0.300937" ry="0.300937" fill="url(#paint63_linear_881_17299)"/>
<ellipse cx="39.8205" cy="39.821" rx="0.300937" ry="0.300937" fill="url(#paint64_linear_881_17299)"/>
<ellipse cx="46.2423" cy="39.821" rx="0.300937" ry="0.300937" fill="url(#paint65_linear_881_17299)"/>
<ellipse cx="52.6603" cy="39.821" rx="0.300937" ry="0.300937" fill="url(#paint66_linear_881_17299)"/>
<ellipse cx="59.0822" cy="39.821" rx="0.300937" ry="0.300937" fill="url(#paint67_linear_881_17299)"/>
<ellipse cx="65.5002" cy="39.821" rx="0.300937" ry="0.300937" fill="url(#paint68_linear_881_17299)"/>
<ellipse cx="71.922" cy="39.821" rx="0.300937" ry="0.300937" fill="url(#paint69_linear_881_17299)"/>
<ellipse cx="78.34" cy="39.821" rx="0.300937" ry="0.300937" fill="url(#paint70_linear_881_17299)"/>
<ellipse cx="1.30094" cy="46.2409" rx="0.300937" ry="0.300937" fill="url(#paint71_linear_881_17299)"/>
<ellipse cx="7.72281" cy="46.2409" rx="0.300937" ry="0.300937" fill="url(#paint72_linear_881_17299)"/>
<ellipse cx="14.1408" cy="46.2409" rx="0.300937" ry="0.300937" fill="url(#paint73_linear_881_17299)"/>
<ellipse cx="20.5627" cy="46.2409" rx="0.300937" ry="0.300937" fill="url(#paint74_linear_881_17299)"/>
<ellipse cx="26.9806" cy="46.2409" rx="0.300937" ry="0.300937" fill="url(#paint75_linear_881_17299)"/>
<ellipse cx="33.4025" cy="46.2409" rx="0.300937" ry="0.300937" fill="url(#paint76_linear_881_17299)"/>
<ellipse cx="39.8205" cy="46.2409" rx="0.300937" ry="0.300937" fill="url(#paint77_linear_881_17299)"/>
<ellipse cx="46.2423" cy="46.2409" rx="0.300937" ry="0.300937" fill="url(#paint78_linear_881_17299)"/>
<ellipse cx="52.6603" cy="46.2409" rx="0.300937" ry="0.300937" fill="url(#paint79_linear_881_17299)"/>
<ellipse cx="59.0822" cy="46.2409" rx="0.300937" ry="0.300937" fill="url(#paint80_linear_881_17299)"/>
<ellipse cx="65.5002" cy="46.2409" rx="0.300937" ry="0.300937" fill="url(#paint81_linear_881_17299)"/>
<ellipse cx="71.922" cy="46.2409" rx="0.300937" ry="0.300937" fill="url(#paint82_linear_881_17299)"/>
<ellipse cx="78.34" cy="46.2409" rx="0.300937" ry="0.300937" fill="url(#paint83_linear_881_17299)"/>
<ellipse cx="1.30094" cy="52.6608" rx="0.300937" ry="0.300937" fill="url(#paint84_linear_881_17299)"/>
<ellipse cx="7.72281" cy="52.6608" rx="0.300937" ry="0.300937" fill="url(#paint85_linear_881_17299)"/>
<ellipse cx="14.1408" cy="52.6608" rx="0.300937" ry="0.300937" fill="url(#paint86_linear_881_17299)"/>
<ellipse cx="20.5627" cy="52.6608" rx="0.300937" ry="0.300937" fill="url(#paint87_linear_881_17299)"/>
<ellipse cx="26.9806" cy="52.6608" rx="0.300937" ry="0.300937" fill="url(#paint88_linear_881_17299)"/>
<ellipse cx="33.4025" cy="52.6608" rx="0.300937" ry="0.300937" fill="url(#paint89_linear_881_17299)"/>
<ellipse cx="39.8205" cy="52.6608" rx="0.300937" ry="0.300937" fill="url(#paint90_linear_881_17299)"/>
<ellipse cx="46.2423" cy="52.6608" rx="0.300937" ry="0.300937" fill="url(#paint91_linear_881_17299)"/>
<ellipse cx="52.6603" cy="52.6608" rx="0.300937" ry="0.300937" fill="url(#paint92_linear_881_17299)"/>
<ellipse cx="59.0822" cy="52.6608" rx="0.300937" ry="0.300937" fill="url(#paint93_linear_881_17299)"/>
<ellipse cx="65.5002" cy="52.6608" rx="0.300937" ry="0.300937" fill="url(#paint94_linear_881_17299)"/>
<ellipse cx="71.922" cy="52.6608" rx="0.300937" ry="0.300937" fill="url(#paint95_linear_881_17299)"/>
<ellipse cx="78.34" cy="52.6608" rx="0.300937" ry="0.300937" fill="url(#paint96_linear_881_17299)"/>
<ellipse cx="0.300937" cy="0.300937" rx="0.300937" ry="0.300937" transform="matrix(1 0 0 -1 7.62109 59.4824)" fill="url(#paint97_linear_881_17299)"/>
<ellipse cx="0.300937" cy="0.300937" rx="0.300937" ry="0.300937" transform="matrix(1 0 0 -1 14.043 59.4824)" fill="url(#paint98_linear_881_17299)"/>
<ellipse cx="0.300937" cy="0.300937" rx="0.300937" ry="0.300937" transform="matrix(1 0 0 -1 20.4609 59.4824)" fill="url(#paint99_linear_881_17299)"/>
<ellipse cx="0.300937" cy="0.300937" rx="0.300937" ry="0.300937" transform="matrix(1 0 0 -1 26.8828 59.4824)" fill="url(#paint100_linear_881_17299)"/>
<ellipse cx="0.300937" cy="0.300937" rx="0.300937" ry="0.300937" transform="matrix(1 0 0 -1 33.3008 59.4824)" fill="url(#paint101_linear_881_17299)"/>
<ellipse cx="0.300937" cy="0.300937" rx="0.300937" ry="0.300937" transform="matrix(1 0 0 -1 39.7227 59.4824)" fill="url(#paint102_linear_881_17299)"/>
<ellipse cx="0.300937" cy="0.300937" rx="0.300937" ry="0.300937" transform="matrix(1 0 0 -1 46.1406 59.4824)" fill="url(#paint103_linear_881_17299)"/>
<ellipse cx="0.300937" cy="0.300937" rx="0.300937" ry="0.300937" transform="matrix(1 0 0 -1 52.5625 59.4824)" fill="url(#paint104_linear_881_17299)"/>
<ellipse cx="0.300937" cy="0.300937" rx="0.300937" ry="0.300937" transform="matrix(1 0 0 -1 58.9805 59.4824)" fill="url(#paint105_linear_881_17299)"/>
<ellipse cx="0.300937" cy="0.300937" rx="0.300937" ry="0.300937" transform="matrix(1 0 0 -1 65.4023 59.4824)" fill="url(#paint106_linear_881_17299)"/>
<ellipse cx="0.300937" cy="0.300937" rx="0.300937" ry="0.300937" transform="matrix(1 0 0 -1 71.8203 59.4824)" fill="url(#paint107_linear_881_17299)"/>
<ellipse cx="0.300937" cy="0.300937" rx="0.300937" ry="0.300937" transform="matrix(1 0 0 -1 14.0391 66.2031)" fill="url(#paint108_linear_881_17299)"/>
<ellipse cx="0.300937" cy="0.300937" rx="0.300937" ry="0.300937" transform="matrix(1 0 0 -1 20.4609 66.2031)" fill="url(#paint109_linear_881_17299)"/>
<ellipse cx="0.300937" cy="0.300937" rx="0.300937" ry="0.300937" transform="matrix(1 0 0 -1 26.8789 66.2031)" fill="url(#paint110_linear_881_17299)"/>
<ellipse cx="0.300937" cy="0.300937" rx="0.300937" ry="0.300937" transform="matrix(1 0 0 -1 33.3008 66.2031)" fill="url(#paint111_linear_881_17299)"/>
<ellipse cx="0.300937" cy="0.300937" rx="0.300937" ry="0.300937" transform="matrix(1 0 0 -1 39.7188 66.2031)" fill="url(#paint112_linear_881_17299)"/>
<ellipse cx="0.300937" cy="0.300937" rx="0.300937" ry="0.300937" transform="matrix(1 0 0 -1 46.1406 66.2031)" fill="url(#paint113_linear_881_17299)"/>
<ellipse cx="0.300937" cy="0.300937" rx="0.300937" ry="0.300937" transform="matrix(1 0 0 -1 52.5586 66.2031)" fill="url(#paint114_linear_881_17299)"/>
<ellipse cx="0.300937" cy="0.300937" rx="0.300937" ry="0.300937" transform="matrix(1 0 0 -1 58.9805 66.2031)" fill="url(#paint115_linear_881_17299)"/>
<ellipse cx="0.300937" cy="0.300937" rx="0.300937" ry="0.300937" transform="matrix(1 0 0 -1 65.3984 66.2031)" fill="url(#paint116_linear_881_17299)"/>
<ellipse cx="0.300937" cy="0.300937" rx="0.300937" ry="0.300937" transform="matrix(1 0 0 -1 20.4609 73.0239)" fill="url(#paint117_linear_881_17299)"/>
<ellipse cx="0.300937" cy="0.300937" rx="0.300937" ry="0.300937" transform="matrix(1 0 0 -1 26.8828 73.0239)" fill="url(#paint118_linear_881_17299)"/>
<ellipse cx="0.300937" cy="0.300937" rx="0.300937" ry="0.300937" transform="matrix(1 0 0 -1 33.3008 73.0239)" fill="url(#paint119_linear_881_17299)"/>
<ellipse cx="0.300937" cy="0.300937" rx="0.300937" ry="0.300937" transform="matrix(1 0 0 -1 39.7227 73.0239)" fill="url(#paint120_linear_881_17299)"/>
<ellipse cx="0.300937" cy="0.300937" rx="0.300937" ry="0.300937" transform="matrix(1 0 0 -1 46.1406 73.0239)" fill="url(#paint121_linear_881_17299)"/>
<ellipse cx="0.300937" cy="0.300937" rx="0.300937" ry="0.300937" transform="matrix(1 0 0 -1 52.5625 73.0239)" fill="url(#paint122_linear_881_17299)"/>
<ellipse cx="0.300937" cy="0.300937" rx="0.300937" ry="0.300937" transform="matrix(1 0 0 -1 58.9805 73.0239)" fill="url(#paint123_linear_881_17299)"/>
<ellipse cx="0.300937" cy="0.300937" rx="0.300937" ry="0.300937" transform="matrix(1 0 0 -1 26.8789 79.7451)" fill="url(#paint124_linear_881_17299)"/>
<ellipse cx="0.300937" cy="0.300937" rx="0.300937" ry="0.300937" transform="matrix(1 0 0 -1 33.3008 79.7451)" fill="url(#paint125_linear_881_17299)"/>
<ellipse cx="0.300937" cy="0.300937" rx="0.300937" ry="0.300937" transform="matrix(1 0 0 -1 39.7188 79.7451)" fill="url(#paint126_linear_881_17299)"/>
<ellipse cx="0.300937" cy="0.300937" rx="0.300937" ry="0.300937" transform="matrix(1 0 0 -1 46.1406 79.7451)" fill="url(#paint127_linear_881_17299)"/>
<ellipse cx="0.300937" cy="0.300937" rx="0.300937" ry="0.300937" transform="matrix(1 0 0 -1 52.5586 79.7451)" fill="url(#paint128_linear_881_17299)"/>
</g>
<defs>
<filter id="filter0_f_881_17299" x="0.197502" y="0.197502" width="79.648" height="80.4502" filterUnits="userSpaceOnUse" color-interpolation-filters="sRGB">
<feFlood flood-opacity="0" result="BackgroundImageFix"/>
<feBlend mode="normal" in="SourceGraphic" in2="BackgroundImageFix" result="shape"/>
<feGaussianBlur stdDeviation="0.401249" result="effect1_foregroundBlur_881_17299"/>
</filter>
<linearGradient id="paint0_linear_881_17299" x1="26.8789" y1="1" x2="27.47" y2="1.61224" gradientUnits="userSpaceOnUse">
<stop stop-color="#3C82F6"/>
<stop offset="1" stop-color="#8CD1FB"/>
</linearGradient>
<linearGradient id="paint1_linear_881_17299" x1="33.3008" y1="1" x2="33.8919" y2="1.61224" gradientUnits="userSpaceOnUse">
<stop stop-color="#3C82F6"/>
<stop offset="1" stop-color="#8CD1FB"/>
</linearGradient>
<linearGradient id="paint2_linear_881_17299" x1="39.7188" y1="1" x2="40.3099" y2="1.61224" gradientUnits="userSpaceOnUse">
<stop stop-color="#3C82F6"/>
<stop offset="1" stop-color="#8CD1FB"/>
</linearGradient>
<linearGradient id="paint3_linear_881_17299" x1="46.1406" y1="1" x2="46.7318" y2="1.61224" gradientUnits="userSpaceOnUse">
<stop stop-color="#3C82F6"/>
<stop offset="1" stop-color="#8CD1FB"/>
</linearGradient>
<linearGradient id="paint4_linear_881_17299" x1="52.5586" y1="1" x2="53.1497" y2="1.61224" gradientUnits="userSpaceOnUse">
<stop stop-color="#3C82F6"/>
<stop offset="1" stop-color="#8CD1FB"/>
</linearGradient>
<linearGradient id="paint5_linear_881_17299" x1="20.4609" y1="7.41992" x2="21.0521" y2="8.03217" gradientUnits="userSpaceOnUse">
<stop stop-color="#3C82F6"/>
<stop offset="1" stop-color="#8CD1FB"/>
</linearGradient>
<linearGradient id="paint6_linear_881_17299" x1="26.8828" y1="7.41992" x2="27.4739" y2="8.03217" gradientUnits="userSpaceOnUse">
<stop stop-color="#3C82F6"/>
<stop offset="1" stop-color="#8CD1FB"/>
</linearGradient>
<linearGradient id="paint7_linear_881_17299" x1="33.3008" y1="7.41992" x2="33.8919" y2="8.03217" gradientUnits="userSpaceOnUse">
<stop stop-color="#3C82F6"/>
<stop offset="1" stop-color="#8CD1FB"/>
</linearGradient>
<linearGradient id="paint8_linear_881_17299" x1="39.7227" y1="7.41992" x2="40.3138" y2="8.03217" gradientUnits="userSpaceOnUse">
<stop stop-color="#3C82F6"/>
<stop offset="1" stop-color="#8CD1FB"/>
</linearGradient>
<linearGradient id="paint9_linear_881_17299" x1="46.1406" y1="7.41992" x2="46.7318" y2="8.03217" gradientUnits="userSpaceOnUse">
<stop stop-color="#3C82F6"/>
<stop offset="1" stop-color="#8CD1FB"/>
</linearGradient>
<linearGradient id="paint10_linear_881_17299" x1="52.5625" y1="7.41992" x2="53.1536" y2="8.03217" gradientUnits="userSpaceOnUse">
<stop stop-color="#3C82F6"/>
<stop offset="1" stop-color="#8CD1FB"/>
</linearGradient>
<linearGradient id="paint11_linear_881_17299" x1="58.9805" y1="7.41992" x2="59.5716" y2="8.03217" gradientUnits="userSpaceOnUse">
<stop stop-color="#3C82F6"/>
<stop offset="1" stop-color="#8CD1FB"/>
</linearGradient>
<linearGradient id="paint12_linear_881_17299" x1="14.0391" y1="13.8398" x2="14.6302" y2="14.4521" gradientUnits="userSpaceOnUse">
<stop stop-color="#3C82F6"/>
<stop offset="1" stop-color="#8CD1FB"/>
</linearGradient>
<linearGradient id="paint13_linear_881_17299" x1="20.4609" y1="13.8398" x2="21.0521" y2="14.4521" gradientUnits="userSpaceOnUse">
<stop stop-color="#3C82F6"/>
<stop offset="1" stop-color="#8CD1FB"/>
</linearGradient>
<linearGradient id="paint14_linear_881_17299" x1="26.8789" y1="13.8398" x2="27.47" y2="14.4521" gradientUnits="userSpaceOnUse">
<stop stop-color="#3C82F6"/>
<stop offset="1" stop-color="#8CD1FB"/>
</linearGradient>
<linearGradient id="paint15_linear_881_17299" x1="33.3008" y1="13.8398" x2="33.8919" y2="14.4521" gradientUnits="userSpaceOnUse">
<stop stop-color="#3C82F6"/>
<stop offset="1" stop-color="#8CD1FB"/>
</linearGradient>
<linearGradient id="paint16_linear_881_17299" x1="39.7188" y1="13.8398" x2="40.3099" y2="14.4521" gradientUnits="userSpaceOnUse">
<stop stop-color="#3C82F6"/>
<stop offset="1" stop-color="#8CD1FB"/>
</linearGradient>
<linearGradient id="paint17_linear_881_17299" x1="46.1406" y1="13.8398" x2="46.7318" y2="14.4521" gradientUnits="userSpaceOnUse">
<stop stop-color="#3C82F6"/>
<stop offset="1" stop-color="#8CD1FB"/>
</linearGradient>
<linearGradient id="paint18_linear_881_17299" x1="52.5586" y1="13.8398" x2="53.1497" y2="14.4521" gradientUnits="userSpaceOnUse">
<stop stop-color="#3C82F6"/>
<stop offset="1" stop-color="#8CD1FB"/>
</linearGradient>
<linearGradient id="paint19_linear_881_17299" x1="58.9805" y1="13.8398" x2="59.5716" y2="14.4521" gradientUnits="userSpaceOnUse">
<stop stop-color="#3C82F6"/>
<stop offset="1" stop-color="#8CD1FB"/>
</linearGradient>
<linearGradient id="paint20_linear_881_17299" x1="65.3984" y1="13.8398" x2="65.9896" y2="14.4521" gradientUnits="userSpaceOnUse">
<stop stop-color="#3C82F6"/>
<stop offset="1" stop-color="#8CD1FB"/>
</linearGradient>
<linearGradient id="paint21_linear_881_17299" x1="7.62109" y1="20.2598" x2="8.21223" y2="20.872" gradientUnits="userSpaceOnUse">
<stop stop-color="#3C82F6"/>
<stop offset="1" stop-color="#8CD1FB"/>
</linearGradient>
<linearGradient id="paint22_linear_881_17299" x1="14.043" y1="20.2598" x2="14.6341" y2="20.872" gradientUnits="userSpaceOnUse">
<stop stop-color="#3C82F6"/>
<stop offset="1" stop-color="#8CD1FB"/>
</linearGradient>
<linearGradient id="paint23_linear_881_17299" x1="20.4609" y1="20.2598" x2="21.0521" y2="20.872" gradientUnits="userSpaceOnUse">
<stop stop-color="#3C82F6"/>
<stop offset="1" stop-color="#8CD1FB"/>
</linearGradient>
<linearGradient id="paint24_linear_881_17299" x1="26.8828" y1="20.2598" x2="27.4739" y2="20.872" gradientUnits="userSpaceOnUse">
<stop stop-color="#3C82F6"/>
<stop offset="1" stop-color="#8CD1FB"/>
</linearGradient>
<linearGradient id="paint25_linear_881_17299" x1="33.3008" y1="20.2598" x2="33.8919" y2="20.872" gradientUnits="userSpaceOnUse">
<stop stop-color="#3C82F6"/>
<stop offset="1" stop-color="#8CD1FB"/>
</linearGradient>
<linearGradient id="paint26_linear_881_17299" x1="39.7227" y1="20.2598" x2="40.3138" y2="20.872" gradientUnits="userSpaceOnUse">
<stop stop-color="#3C82F6"/>
<stop offset="1" stop-color="#8CD1FB"/>
</linearGradient>
<linearGradient id="paint27_linear_881_17299" x1="46.1406" y1="20.2598" x2="46.7318" y2="20.872" gradientUnits="userSpaceOnUse">
<stop stop-color="#3C82F6"/>
<stop offset="1" stop-color="#8CD1FB"/>
</linearGradient>
<linearGradient id="paint28_linear_881_17299" x1="52.5625" y1="20.2598" x2="53.1536" y2="20.872" gradientUnits="userSpaceOnUse">
<stop stop-color="#3C82F6"/>
<stop offset="1" stop-color="#8CD1FB"/>
</linearGradient>
<linearGradient id="paint29_linear_881_17299" x1="58.9805" y1="20.2598" x2="59.5716" y2="20.872" gradientUnits="userSpaceOnUse">
<stop stop-color="#3C82F6"/>
<stop offset="1" stop-color="#8CD1FB"/>
</linearGradient>
<linearGradient id="paint30_linear_881_17299" x1="65.4023" y1="20.2598" x2="65.9935" y2="20.872" gradientUnits="userSpaceOnUse">
<stop stop-color="#3C82F6"/>
<stop offset="1" stop-color="#8CD1FB"/>
</linearGradient>
<linearGradient id="paint31_linear_881_17299" x1="71.8203" y1="20.2598" x2="72.4114" y2="20.872" gradientUnits="userSpaceOnUse">
<stop stop-color="#3C82F6"/>
<stop offset="1" stop-color="#8CD1FB"/>
</linearGradient>
<linearGradient id="paint32_linear_881_17299" x1="1" y1="26.6802" x2="1.59113" y2="27.2924" gradientUnits="userSpaceOnUse">
<stop stop-color="#3C82F6"/>
<stop offset="1" stop-color="#8CD1FB"/>
</linearGradient>
<linearGradient id="paint33_linear_881_17299" x1="7.42188" y1="26.6802" x2="8.01301" y2="27.2924" gradientUnits="userSpaceOnUse">
<stop stop-color="#3C82F6"/>
<stop offset="1" stop-color="#8CD1FB"/>
</linearGradient>
<linearGradient id="paint34_linear_881_17299" x1="13.8398" y1="26.6802" x2="14.431" y2="27.2924" gradientUnits="userSpaceOnUse">
<stop stop-color="#3C82F6"/>
<stop offset="1" stop-color="#8CD1FB"/>
</linearGradient>
<linearGradient id="paint35_linear_881_17299" x1="20.2617" y1="26.6802" x2="20.8529" y2="27.2924" gradientUnits="userSpaceOnUse">
<stop stop-color="#3C82F6"/>
<stop offset="1" stop-color="#8CD1FB"/>
</linearGradient>
<linearGradient id="paint36_linear_881_17299" x1="26.6797" y1="26.6802" x2="27.2708" y2="27.2924" gradientUnits="userSpaceOnUse">
<stop stop-color="#3C82F6"/>
<stop offset="1" stop-color="#8CD1FB"/>
</linearGradient>
<linearGradient id="paint37_linear_881_17299" x1="33.1016" y1="26.6802" x2="33.6927" y2="27.2924" gradientUnits="userSpaceOnUse">
<stop stop-color="#3C82F6"/>
<stop offset="1" stop-color="#8CD1FB"/>
</linearGradient>
<linearGradient id="paint38_linear_881_17299" x1="39.5195" y1="26.6802" x2="40.1107" y2="27.2924" gradientUnits="userSpaceOnUse">
<stop stop-color="#3C82F6"/>
<stop offset="1" stop-color="#8CD1FB"/>
</linearGradient>
<linearGradient id="paint39_linear_881_17299" x1="45.9414" y1="26.6802" x2="46.5325" y2="27.2924" gradientUnits="userSpaceOnUse">
<stop stop-color="#3C82F6"/>
<stop offset="1" stop-color="#8CD1FB"/>
</linearGradient>
<linearGradient id="paint40_linear_881_17299" x1="52.3594" y1="26.6802" x2="52.9505" y2="27.2924" gradientUnits="userSpaceOnUse">
<stop stop-color="#3C82F6"/>
<stop offset="1" stop-color="#8CD1FB"/>
</linearGradient>
<linearGradient id="paint41_linear_881_17299" x1="58.7812" y1="26.6802" x2="59.3724" y2="27.2924" gradientUnits="userSpaceOnUse">
<stop stop-color="#3C82F6"/>
<stop offset="1" stop-color="#8CD1FB"/>
</linearGradient>
<linearGradient id="paint42_linear_881_17299" x1="65.1992" y1="26.6802" x2="65.7904" y2="27.2924" gradientUnits="userSpaceOnUse">
<stop stop-color="#3C82F6"/>
<stop offset="1" stop-color="#8CD1FB"/>
</linearGradient>
<linearGradient id="paint43_linear_881_17299" x1="71.6211" y1="26.6802" x2="72.2122" y2="27.2924" gradientUnits="userSpaceOnUse">
<stop stop-color="#3C82F6"/>
<stop offset="1" stop-color="#8CD1FB"/>
</linearGradient>
<linearGradient id="paint44_linear_881_17299" x1="78.0391" y1="26.6802" x2="78.6302" y2="27.2924" gradientUnits="userSpaceOnUse">
<stop stop-color="#3C82F6"/>
<stop offset="1" stop-color="#8CD1FB"/>
</linearGradient>
<linearGradient id="paint45_linear_881_17299" x1="1" y1="33.1001" x2="1.59113" y2="33.7123" gradientUnits="userSpaceOnUse">
<stop stop-color="#3C82F6"/>
<stop offset="1" stop-color="#8CD1FB"/>
</linearGradient>
<linearGradient id="paint46_linear_881_17299" x1="7.42188" y1="33.1001" x2="8.01301" y2="33.7123" gradientUnits="userSpaceOnUse">
<stop stop-color="#3C82F6"/>
<stop offset="1" stop-color="#8CD1FB"/>
</linearGradient>
<linearGradient id="paint47_linear_881_17299" x1="13.8398" y1="33.1001" x2="14.431" y2="33.7123" gradientUnits="userSpaceOnUse">
<stop stop-color="#3C82F6"/>
<stop offset="1" stop-color="#8CD1FB"/>
</linearGradient>
<linearGradient id="paint48_linear_881_17299" x1="20.2617" y1="33.1001" x2="20.8529" y2="33.7123" gradientUnits="userSpaceOnUse">
<stop stop-color="#3C82F6"/>
<stop offset="1" stop-color="#8CD1FB"/>
</linearGradient>
<linearGradient id="paint49_linear_881_17299" x1="26.6797" y1="33.1001" x2="27.2708" y2="33.7123" gradientUnits="userSpaceOnUse">
<stop stop-color="#3C82F6"/>
<stop offset="1" stop-color="#8CD1FB"/>
</linearGradient>
<linearGradient id="paint50_linear_881_17299" x1="33.1016" y1="33.1001" x2="33.6927" y2="33.7123" gradientUnits="userSpaceOnUse">
<stop stop-color="#3C82F6"/>
<stop offset="1" stop-color="#8CD1FB"/>
</linearGradient>
<linearGradient id="paint51_linear_881_17299" x1="39.5195" y1="33.1001" x2="40.1107" y2="33.7123" gradientUnits="userSpaceOnUse">
<stop stop-color="#3C82F6"/>
<stop offset="1" stop-color="#8CD1FB"/>
</linearGradient>
<linearGradient id="paint52_linear_881_17299" x1="45.9414" y1="33.1001" x2="46.5325" y2="33.7123" gradientUnits="userSpaceOnUse">
<stop stop-color="#3C82F6"/>
<stop offset="1" stop-color="#8CD1FB"/>
</linearGradient>
<linearGradient id="paint53_linear_881_17299" x1="52.3594" y1="33.1001" x2="52.9505" y2="33.7123" gradientUnits="userSpaceOnUse">
<stop stop-color="#3C82F6"/>
<stop offset="1" stop-color="#8CD1FB"/>
</linearGradient>
<linearGradient id="paint54_linear_881_17299" x1="58.7812" y1="33.1001" x2="59.3724" y2="33.7123" gradientUnits="userSpaceOnUse">
<stop stop-color="#3C82F6"/>
<stop offset="1" stop-color="#8CD1FB"/>
</linearGradient>
<linearGradient id="paint55_linear_881_17299" x1="65.1992" y1="33.1001" x2="65.7904" y2="33.7123" gradientUnits="userSpaceOnUse">
<stop stop-color="#3C82F6"/>
<stop offset="1" stop-color="#8CD1FB"/>
</linearGradient>
<linearGradient id="paint56_linear_881_17299" x1="71.6211" y1="33.1001" x2="72.2122" y2="33.7123" gradientUnits="userSpaceOnUse">
<stop stop-color="#3C82F6"/>
<stop offset="1" stop-color="#8CD1FB"/>
</linearGradient>
<linearGradient id="paint57_linear_881_17299" x1="78.0391" y1="33.1001" x2="78.6302" y2="33.7123" gradientUnits="userSpaceOnUse">
<stop stop-color="#3C82F6"/>
<stop offset="1" stop-color="#8CD1FB"/>
</linearGradient>
<linearGradient id="paint58_linear_881_17299" x1="1" y1="39.52" x2="1.59113" y2="40.1323" gradientUnits="userSpaceOnUse">
<stop stop-color="#3C82F6"/>
<stop offset="1" stop-color="#8CD1FB"/>
</linearGradient>
<linearGradient id="paint59_linear_881_17299" x1="7.42188" y1="39.52" x2="8.01301" y2="40.1323" gradientUnits="userSpaceOnUse">
<stop stop-color="#3C82F6"/>
<stop offset="1" stop-color="#8CD1FB"/>
</linearGradient>
<linearGradient id="paint60_linear_881_17299" x1="13.8398" y1="39.52" x2="14.431" y2="40.1323" gradientUnits="userSpaceOnUse">
<stop stop-color="#3C82F6"/>
<stop offset="1" stop-color="#8CD1FB"/>
</linearGradient>
<linearGradient id="paint61_linear_881_17299" x1="20.2617" y1="39.52" x2="20.8529" y2="40.1323" gradientUnits="userSpaceOnUse">
<stop stop-color="#3C82F6"/>
<stop offset="1" stop-color="#8CD1FB"/>
</linearGradient>
<linearGradient id="paint62_linear_881_17299" x1="26.6797" y1="39.52" x2="27.2708" y2="40.1323" gradientUnits="userSpaceOnUse">
<stop stop-color="#3C82F6"/>
<stop offset="1" stop-color="#8CD1FB"/>
</linearGradient>
<linearGradient id="paint63_linear_881_17299" x1="33.1016" y1="39.52" x2="33.6927" y2="40.1323" gradientUnits="userSpaceOnUse">
<stop stop-color="#3C82F6"/>
<stop offset="1" stop-color="#8CD1FB"/>
</linearGradient>
<linearGradient id="paint64_linear_881_17299" x1="39.5195" y1="39.52" x2="40.1107" y2="40.1323" gradientUnits="userSpaceOnUse">
<stop stop-color="#3C82F6"/>
<stop offset="1" stop-color="#8CD1FB"/>
</linearGradient>
<linearGradient id="paint65_linear_881_17299" x1="45.9414" y1="39.52" x2="46.5325" y2="40.1323" gradientUnits="userSpaceOnUse">
<stop stop-color="#3C82F6"/>
<stop offset="1" stop-color="#8CD1FB"/>
</linearGradient>
<linearGradient id="paint66_linear_881_17299" x1="52.3594" y1="39.52" x2="52.9505" y2="40.1323" gradientUnits="userSpaceOnUse">
<stop stop-color="#3C82F6"/>
<stop offset="1" stop-color="#8CD1FB"/>
</linearGradient>
<linearGradient id="paint67_linear_881_17299" x1="58.7812" y1="39.52" x2="59.3724" y2="40.1323" gradientUnits="userSpaceOnUse">
<stop stop-color="#3C82F6"/>
<stop offset="1" stop-color="#8CD1FB"/>
</linearGradient>
<linearGradient id="paint68_linear_881_17299" x1="65.1992" y1="39.52" x2="65.7904" y2="40.1323" gradientUnits="userSpaceOnUse">
<stop stop-color="#3C82F6"/>
<stop offset="1" stop-color="#8CD1FB"/>
</linearGradient>
<linearGradient id="paint69_linear_881_17299" x1="71.6211" y1="39.52" x2="72.2122" y2="40.1323" gradientUnits="userSpaceOnUse">
<stop stop-color="#3C82F6"/>
<stop offset="1" stop-color="#8CD1FB"/>
</linearGradient>
<linearGradient id="paint70_linear_881_17299" x1="78.0391" y1="39.52" x2="78.6302" y2="40.1323" gradientUnits="userSpaceOnUse">
<stop stop-color="#3C82F6"/>
<stop offset="1" stop-color="#8CD1FB"/>
</linearGradient>
<linearGradient id="paint71_linear_881_17299" x1="1" y1="45.9399" x2="1.59113" y2="46.5522" gradientUnits="userSpaceOnUse">
<stop stop-color="#3C82F6"/>
<stop offset="1" stop-color="#8CD1FB"/>
</linearGradient>
<linearGradient id="paint72_linear_881_17299" x1="7.42188" y1="45.9399" x2="8.01301" y2="46.5522" gradientUnits="userSpaceOnUse">
<stop stop-color="#3C82F6"/>
<stop offset="1" stop-color="#8CD1FB"/>
</linearGradient>
<linearGradient id="paint73_linear_881_17299" x1="13.8398" y1="45.9399" x2="14.431" y2="46.5522" gradientUnits="userSpaceOnUse">
<stop stop-color="#3C82F6"/>
<stop offset="1" stop-color="#8CD1FB"/>
</linearGradient>
<linearGradient id="paint74_linear_881_17299" x1="20.2617" y1="45.9399" x2="20.8529" y2="46.5522" gradientUnits="userSpaceOnUse">
<stop stop-color="#3C82F6"/>
<stop offset="1" stop-color="#8CD1FB"/>
</linearGradient>
<linearGradient id="paint75_linear_881_17299" x1="26.6797" y1="45.9399" x2="27.2708" y2="46.5522" gradientUnits="userSpaceOnUse">
<stop stop-color="#3C82F6"/>
<stop offset="1" stop-color="#8CD1FB"/>
</linearGradient>
<linearGradient id="paint76_linear_881_17299" x1="33.1016" y1="45.9399" x2="33.6927" y2="46.5522" gradientUnits="userSpaceOnUse">
<stop stop-color="#3C82F6"/>
<stop offset="1" stop-color="#8CD1FB"/>
</linearGradient>
<linearGradient id="paint77_linear_881_17299" x1="39.5195" y1="45.9399" x2="40.1107" y2="46.5522" gradientUnits="userSpaceOnUse">
<stop stop-color="#3C82F6"/>
<stop offset="1" stop-color="#8CD1FB"/>
</linearGradient>
<linearGradient id="paint78_linear_881_17299" x1="45.9414" y1="45.9399" x2="46.5325" y2="46.5522" gradientUnits="userSpaceOnUse">
<stop stop-color="#3C82F6"/>
<stop offset="1" stop-color="#8CD1FB"/>
</linearGradient>
<linearGradient id="paint79_linear_881_17299" x1="52.3594" y1="45.9399" x2="52.9505" y2="46.5522" gradientUnits="userSpaceOnUse">
<stop stop-color="#3C82F6"/>
<stop offset="1" stop-color="#8CD1FB"/>
</linearGradient>
<linearGradient id="paint80_linear_881_17299" x1="58.7812" y1="45.9399" x2="59.3724" y2="46.5522" gradientUnits="userSpaceOnUse">
<stop stop-color="#3C82F6"/>
<stop offset="1" stop-color="#8CD1FB"/>
</linearGradient>
<linearGradient id="paint81_linear_881_17299" x1="65.1992" y1="45.9399" x2="65.7904" y2="46.5522" gradientUnits="userSpaceOnUse">
<stop stop-color="#3C82F6"/>
<stop offset="1" stop-color="#8CD1FB"/>
</linearGradient>
<linearGradient id="paint82_linear_881_17299" x1="71.6211" y1="45.9399" x2="72.2122" y2="46.5522" gradientUnits="userSpaceOnUse">
<stop stop-color="#3C82F6"/>
<stop offset="1" stop-color="#8CD1FB"/>
</linearGradient>
<linearGradient id="paint83_linear_881_17299" x1="78.0391" y1="45.9399" x2="78.6302" y2="46.5522" gradientUnits="userSpaceOnUse">
<stop stop-color="#3C82F6"/>
<stop offset="1" stop-color="#8CD1FB"/>
</linearGradient>
<linearGradient id="paint84_linear_881_17299" x1="1" y1="52.3599" x2="1.59113" y2="52.9721" gradientUnits="userSpaceOnUse">
<stop stop-color="#3C82F6"/>
<stop offset="1" stop-color="#8CD1FB"/>
</linearGradient>
<linearGradient id="paint85_linear_881_17299" x1="7.42188" y1="52.3599" x2="8.01301" y2="52.9721" gradientUnits="userSpaceOnUse">
<stop stop-color="#3C82F6"/>
<stop offset="1" stop-color="#8CD1FB"/>
</linearGradient>
<linearGradient id="paint86_linear_881_17299" x1="13.8398" y1="52.3599" x2="14.431" y2="52.9721" gradientUnits="userSpaceOnUse">
<stop stop-color="#3C82F6"/>
<stop offset="1" stop-color="#8CD1FB"/>
</linearGradient>
<linearGradient id="paint87_linear_881_17299" x1="20.2617" y1="52.3599" x2="20.8529" y2="52.9721" gradientUnits="userSpaceOnUse">
<stop stop-color="#3C82F6"/>
<stop offset="1" stop-color="#8CD1FB"/>
</linearGradient>
<linearGradient id="paint88_linear_881_17299" x1="26.6797" y1="52.3599" x2="27.2708" y2="52.9721" gradientUnits="userSpaceOnUse">
<stop stop-color="#3C82F6"/>
<stop offset="1" stop-color="#8CD1FB"/>
</linearGradient>
<linearGradient id="paint89_linear_881_17299" x1="33.1016" y1="52.3599" x2="33.6927" y2="52.9721" gradientUnits="userSpaceOnUse">
<stop stop-color="#3C82F6"/>
<stop offset="1" stop-color="#8CD1FB"/>
</linearGradient>
<linearGradient id="paint90_linear_881_17299" x1="39.5195" y1="52.3599" x2="40.1107" y2="52.9721" gradientUnits="userSpaceOnUse">
<stop stop-color="#3C82F6"/>
<stop offset="1" stop-color="#8CD1FB"/>
</linearGradient>
<linearGradient id="paint91_linear_881_17299" x1="45.9414" y1="52.3599" x2="46.5325" y2="52.9721" gradientUnits="userSpaceOnUse">
<stop stop-color="#3C82F6"/>
<stop offset="1" stop-color="#8CD1FB"/>
</linearGradient>
<linearGradient id="paint92_linear_881_17299" x1="52.3594" y1="52.3599" x2="52.9505" y2="52.9721" gradientUnits="userSpaceOnUse">
<stop stop-color="#3C82F6"/>
<stop offset="1" stop-color="#8CD1FB"/>
</linearGradient>
<linearGradient id="paint93_linear_881_17299" x1="58.7812" y1="52.3599" x2="59.3724" y2="52.9721" gradientUnits="userSpaceOnUse">
<stop stop-color="#3C82F6"/>
<stop offset="1" stop-color="#8CD1FB"/>
</linearGradient>
<linearGradient id="paint94_linear_881_17299" x1="65.1992" y1="52.3599" x2="65.7904" y2="52.9721" gradientUnits="userSpaceOnUse">
<stop stop-color="#3C82F6"/>
<stop offset="1" stop-color="#8CD1FB"/>
</linearGradient>
<linearGradient id="paint95_linear_881_17299" x1="71.6211" y1="52.3599" x2="72.2122" y2="52.9721" gradientUnits="userSpaceOnUse">
<stop stop-color="#3C82F6"/>
<stop offset="1" stop-color="#8CD1FB"/>
</linearGradient>
<linearGradient id="paint96_linear_881_17299" x1="78.0391" y1="52.3599" x2="78.6302" y2="52.9721" gradientUnits="userSpaceOnUse">
<stop stop-color="#3C82F6"/>
<stop offset="1" stop-color="#8CD1FB"/>
</linearGradient>
<linearGradient id="paint97_linear_881_17299" x1="0" y1="0" x2="0.591133" y2="0.612244" gradientUnits="userSpaceOnUse">
<stop stop-color="#3C82F6"/>
<stop offset="1" stop-color="#8CD1FB"/>
</linearGradient>
<linearGradient id="paint98_linear_881_17299" x1="0" y1="0" x2="0.591133" y2="0.612244" gradientUnits="userSpaceOnUse">
<stop stop-color="#3C82F6"/>
<stop offset="1" stop-color="#8CD1FB"/>
</linearGradient>
<linearGradient id="paint99_linear_881_17299" x1="0" y1="0" x2="0.591133" y2="0.612244" gradientUnits="userSpaceOnUse">
<stop stop-color="#3C82F6"/>
<stop offset="1" stop-color="#8CD1FB"/>
</linearGradient>
<linearGradient id="paint100_linear_881_17299" x1="0" y1="0" x2="0.591133" y2="0.612244" gradientUnits="userSpaceOnUse">
<stop stop-color="#3C82F6"/>
<stop offset="1" stop-color="#8CD1FB"/>
</linearGradient>
<linearGradient id="paint101_linear_881_17299" x1="0" y1="0" x2="0.591133" y2="0.612244" gradientUnits="userSpaceOnUse">
<stop stop-color="#3C82F6"/>
<stop offset="1" stop-color="#8CD1FB"/>
</linearGradient>
<linearGradient id="paint102_linear_881_17299" x1="0" y1="0" x2="0.591133" y2="0.612244" gradientUnits="userSpaceOnUse">
<stop stop-color="#3C82F6"/>
<stop offset="1" stop-color="#8CD1FB"/>
</linearGradient>
<linearGradient id="paint103_linear_881_17299" x1="0" y1="0" x2="0.591133" y2="0.612244" gradientUnits="userSpaceOnUse">
<stop stop-color="#3C82F6"/>
<stop offset="1" stop-color="#8CD1FB"/>
</linearGradient>
<linearGradient id="paint104_linear_881_17299" x1="0" y1="0" x2="0.591133" y2="0.612244" gradientUnits="userSpaceOnUse">
<stop stop-color="#3C82F6"/>
<stop offset="1" stop-color="#8CD1FB"/>
</linearGradient>
<linearGradient id="paint105_linear_881_17299" x1="0" y1="0" x2="0.591133" y2="0.612244" gradientUnits="userSpaceOnUse">
<stop stop-color="#3C82F6"/>
<stop offset="1" stop-color="#8CD1FB"/>
</linearGradient>
<linearGradient id="paint106_linear_881_17299" x1="0" y1="0" x2="0.591133" y2="0.612244" gradientUnits="userSpaceOnUse">
<stop stop-color="#3C82F6"/>
<stop offset="1" stop-color="#8CD1FB"/>
</linearGradient>
<linearGradient id="paint107_linear_881_17299" x1="0" y1="0" x2="0.591133" y2="0.612244" gradientUnits="userSpaceOnUse">
<stop stop-color="#3C82F6"/>
<stop offset="1" stop-color="#8CD1FB"/>
</linearGradient>
<linearGradient id="paint108_linear_881_17299" x1="0" y1="0" x2="0.591133" y2="0.612244" gradientUnits="userSpaceOnUse">
<stop stop-color="#3C82F6"/>
<stop offset="1" stop-color="#8CD1FB"/>
</linearGradient>
<linearGradient id="paint109_linear_881_17299" x1="0" y1="0" x2="0.591133" y2="0.612244" gradientUnits="userSpaceOnUse">
<stop stop-color="#3C82F6"/>
<stop offset="1" stop-color="#8CD1FB"/>
</linearGradient>
<linearGradient id="paint110_linear_881_17299" x1="0" y1="0" x2="0.591133" y2="0.612244" gradientUnits="userSpaceOnUse">
<stop stop-color="#3C82F6"/>
<stop offset="1" stop-color="#8CD1FB"/>
</linearGradient>
<linearGradient id="paint111_linear_881_17299" x1="0" y1="0" x2="0.591133" y2="0.612244" gradientUnits="userSpaceOnUse">
<stop stop-color="#3C82F6"/>
<stop offset="1" stop-color="#8CD1FB"/>
</linearGradient>
<linearGradient id="paint112_linear_881_17299" x1="0" y1="0" x2="0.591133" y2="0.612244" gradientUnits="userSpaceOnUse">
<stop stop-color="#3C82F6"/>
<stop offset="1" stop-color="#8CD1FB"/>
</linearGradient>
<linearGradient id="paint113_linear_881_17299" x1="0" y1="0" x2="0.591133" y2="0.612244" gradientUnits="userSpaceOnUse">
<stop stop-color="#3C82F6"/>
<stop offset="1" stop-color="#8CD1FB"/>
</linearGradient>
<linearGradient id="paint114_linear_881_17299" x1="0" y1="0" x2="0.591133" y2="0.612244" gradientUnits="userSpaceOnUse">
<stop stop-color="#3C82F6"/>
<stop offset="1" stop-color="#8CD1FB"/>
</linearGradient>
<linearGradient id="paint115_linear_881_17299" x1="0" y1="0" x2="0.591133" y2="0.612244" gradientUnits="userSpaceOnUse">
<stop stop-color="#3C82F6"/>
<stop offset="1" stop-color="#8CD1FB"/>
</linearGradient>
<linearGradient id="paint116_linear_881_17299" x1="0" y1="0" x2="0.591133" y2="0.612244" gradientUnits="userSpaceOnUse">
<stop stop-color="#3C82F6"/>
<stop offset="1" stop-color="#8CD1FB"/>
</linearGradient>
<linearGradient id="paint117_linear_881_17299" x1="0" y1="0" x2="0.591133" y2="0.612244" gradientUnits="userSpaceOnUse">
<stop stop-color="#3C82F6"/>
<stop offset="1" stop-color="#8CD1FB"/>
</linearGradient>
<linearGradient id="paint118_linear_881_17299" x1="0" y1="0" x2="0.591133" y2="0.612244" gradientUnits="userSpaceOnUse">
<stop stop-color="#3C82F6"/>
<stop offset="1" stop-color="#8CD1FB"/>
</linearGradient>
<linearGradient id="paint119_linear_881_17299" x1="0" y1="0" x2="0.591133" y2="0.612244" gradientUnits="userSpaceOnUse">
<stop stop-color="#3C82F6"/>
<stop offset="1" stop-color="#8CD1FB"/>
</linearGradient>
<linearGradient id="paint120_linear_881_17299" x1="0" y1="0" x2="0.591133" y2="0.612244" gradientUnits="userSpaceOnUse">
<stop stop-color="#3C82F6"/>
<stop offset="1" stop-color="#8CD1FB"/>
</linearGradient>
<linearGradient id="paint121_linear_881_17299" x1="0" y1="0" x2="0.591133" y2="0.612244" gradientUnits="userSpaceOnUse">
<stop stop-color="#3C82F6"/>
<stop offset="1" stop-color="#8CD1FB"/>
</linearGradient>
<linearGradient id="paint122_linear_881_17299" x1="0" y1="0" x2="0.591133" y2="0.612244" gradientUnits="userSpaceOnUse">
<stop stop-color="#3C82F6"/>
<stop offset="1" stop-color="#8CD1FB"/>
</linearGradient>
<linearGradient id="paint123_linear_881_17299" x1="0" y1="0" x2="0.591133" y2="0.612244" gradientUnits="userSpaceOnUse">
<stop stop-color="#3C82F6"/>
<stop offset="1" stop-color="#8CD1FB"/>
</linearGradient>
<linearGradient id="paint124_linear_881_17299" x1="0" y1="0" x2="0.591133" y2="0.612244" gradientUnits="userSpaceOnUse">
<stop stop-color="#3C82F6"/>
<stop offset="1" stop-color="#8CD1FB"/>
</linearGradient>
<linearGradient id="paint125_linear_881_17299" x1="0" y1="0" x2="0.591133" y2="0.612244" gradientUnits="userSpaceOnUse">
<stop stop-color="#3C82F6"/>
<stop offset="1" stop-color="#8CD1FB"/>
</linearGradient>
<linearGradient id="paint126_linear_881_17299" x1="0" y1="0" x2="0.591133" y2="0.612244" gradientUnits="userSpaceOnUse">
<stop stop-color="#3C82F6"/>
<stop offset="1" stop-color="#8CD1FB"/>
</linearGradient>
<linearGradient id="paint127_linear_881_17299" x1="0" y1="0" x2="0.591133" y2="0.612244" gradientUnits="userSpaceOnUse">
<stop stop-color="#3C82F6"/>
<stop offset="1" stop-color="#8CD1FB"/>
</linearGradient>
<linearGradient id="paint128_linear_881_17299" x1="0" y1="0" x2="0.591133" y2="0.612244" gradientUnits="userSpaceOnUse">
<stop stop-color="#3C82F6"/>
<stop offset="1" stop-color="#8CD1FB"/>
</linearGradient>
</defs>
</svg>
