<svg width="1900" height="950" viewBox="0 0 1900 950" fill="none" xmlns="http://www.w3.org/2000/svg">
<g clip-path="url(#clip0_94_80)">
<path d="M1900 0H0V950H1900V0Z" fill="url(#paint0_radial_94_80)"/>
<g opacity="0.3" filter="url(#filter0_f_94_80)">
<path d="M1207 694H1095.84L994.443 446.659L992.244 694H907.756L905.556 446.659L804.161 694H693L953.703 94L1207 694Z" fill="#6F83A8"/>
</g>
<g opacity="0.11" filter="url(#filter1_f_94_80)">
<path d="M1190 679H1078.84L977.443 431.659L975.244 679H890.756L888.556 431.659L787.161 679H676L936.703 79L1190 679Z" fill="#5F9BFA"/>
<mask id="mask0_94_80" style="mask-type:luminance" maskUnits="userSpaceOnUse" x="676" y="79" width="514" height="600">
<g opacity="0.11">
<path d="M1190 679H1078.84L977.443 431.659L975.244 679H890.756L888.556 431.659L787.161 679H676L936.703 79L1190 679Z" fill="white"/>
</g>
</mask>
<g mask="url(#mask0_94_80)">
<path d="M1190 678.999V710.226H1234.67L1215.98 665.928L1190 678.999ZM1078.84 678.999L1052.74 691.758L1060.31 710.226H1078.84V678.999ZM977.443 431.658L1003.55 418.9L948.845 431.355L977.443 431.658ZM975.243 678.999V710.226H1003.56L1003.84 679.303L975.243 678.999ZM890.756 678.999L862.158 679.303L862.433 710.226H890.756V678.999ZM888.556 431.658L917.153 431.356L862.453 418.9L888.556 431.658ZM787.16 678.999V710.226H805.692L813.263 691.758L787.16 678.999ZM675.999 678.999L650.161 665.614L630.777 710.226H675.999V678.999ZM936.703 78.9993L962.674 65.9268L937.075 5.28906L910.864 65.614L936.703 78.9993ZM1190 678.999V647.772H1078.84V678.999V710.226H1190V678.999ZM1078.84 678.999L1104.94 666.242L1003.55 418.9L977.443 431.658L951.34 444.417L1052.74 691.758L1078.84 678.999ZM977.443 431.658L948.845 431.355L946.645 678.697L975.243 678.999L1003.84 679.303L1006.04 431.962L977.443 431.658ZM975.243 678.999V647.772H890.756V678.999V710.226H975.243V678.999ZM890.756 678.999L919.352 678.697L917.153 431.356L888.556 431.658L859.959 431.962L862.158 679.303L890.756 678.999ZM888.556 431.658L862.453 418.9L761.057 666.242L787.16 678.999L813.263 691.758L914.66 444.417L888.556 431.658ZM787.16 678.999V647.772H675.999V678.999V710.226H787.16V678.999ZM675.999 678.999L701.837 692.385L962.54 92.3843L936.703 78.9993L910.864 65.614L650.161 665.614L675.999 678.999ZM936.703 78.9993L910.73 92.072L1164.03 692.072L1190 678.999L1215.98 665.928L962.674 65.9268L936.703 78.9993Z" fill="#2B3142"/>
</g>
</g>
<mask id="mask1_94_80" style="mask-type:luminance" maskUnits="userSpaceOnUse" x="0" y="162" width="1900" height="747">
<path d="M1900 162.812H0V908.892H1900V162.812Z" fill="white"/>
</mask>
<g mask="url(#mask1_94_80)">
<path opacity="0.75" d="M1900 227.527H0V228.137H1900V227.527Z" fill="url(#paint1_linear_94_80)"/>
<path d="M1900 270.875H0V271.485H1900V270.875Z" fill="url(#paint2_linear_94_80)"/>
<path d="M1900 314.227H0V314.836H1900V314.227Z" fill="url(#paint3_linear_94_80)"/>
<path d="M1900 397.258H0V397.868H1900V397.258Z" fill="url(#paint4_linear_94_80)"/>
<path d="M1900 449.766H0V450.376H1900V449.766Z" fill="url(#paint5_linear_94_80)"/>
<path d="M1900 780.066H0V780.676H1900V780.066Z" fill="url(#paint6_linear_94_80)"/>
<path d="M351.962 65.3281H350.972V797.976H351.962V65.3281Z" fill="url(#paint7_linear_94_80)"/>
<path d="M422.222 65.3281H421.233V797.976H422.222V65.3281Z" fill="url(#paint8_linear_94_80)"/>
<path d="M1485.36 86.2891H1484.38V818.937H1485.36V86.2891Z" fill="url(#paint9_linear_94_80)"/>
<path d="M1555.63 86.2891H1554.64V818.937H1555.63V86.2891Z" fill="url(#paint10_linear_94_80)"/>
<path opacity="0.5" d="M1900 750.148H1899.01V1482.8H1900V750.148Z" fill="url(#paint11_linear_94_80)"/>
</g>
</g>
<defs>
<filter id="filter0_f_94_80" x="519.933" y="-79.0666" width="860.133" height="946.133" filterUnits="userSpaceOnUse" color-interpolation-filters="sRGB">
<feFlood flood-opacity="0" result="BackgroundImageFix"/>
<feBlend mode="normal" in="SourceGraphic" in2="BackgroundImageFix" result="shape"/>
<feGaussianBlur stdDeviation="86.5333" result="effect1_foregroundBlur_94_80"/>
</filter>
<filter id="filter1_f_94_80" x="608.533" y="11.5334" width="648.933" height="734.933" filterUnits="userSpaceOnUse" color-interpolation-filters="sRGB">
<feFlood flood-opacity="0" result="BackgroundImageFix"/>
<feBlend mode="normal" in="SourceGraphic" in2="BackgroundImageFix" result="shape"/>
<feGaussianBlur stdDeviation="33.7333" result="effect1_foregroundBlur_94_80"/>
</filter>
<radialGradient id="paint0_radial_94_80" cx="0" cy="0" r="1" gradientUnits="userSpaceOnUse" gradientTransform="translate(950 475) rotate(90) scale(475 950)">
<stop stop-color="#171C2F"/>
<stop offset="1" stop-color="#04050C"/>
</radialGradient>
<linearGradient id="paint1_linear_94_80" x1="0" y1="227.832" x2="1900" y2="227.832" gradientUnits="userSpaceOnUse">
<stop stop-color="#BAD7F7" stop-opacity="0"/>
<stop offset="0.5" stop-color="#BAD7F7" stop-opacity="0.12"/>
<stop offset="1" stop-color="#BAD7F7" stop-opacity="0"/>
</linearGradient>
<linearGradient id="paint2_linear_94_80" x1="0" y1="271.18" x2="1900" y2="271.18" gradientUnits="userSpaceOnUse">
<stop stop-color="#BAD7F7" stop-opacity="0"/>
<stop offset="0.5" stop-color="#BAD7F7" stop-opacity="0.12"/>
<stop offset="1" stop-color="#BAD7F7" stop-opacity="0"/>
</linearGradient>
<linearGradient id="paint3_linear_94_80" x1="0" y1="314.532" x2="1900" y2="314.532" gradientUnits="userSpaceOnUse">
<stop stop-color="#BAD7F7" stop-opacity="0"/>
<stop offset="0.5" stop-color="#BAD7F7" stop-opacity="0.12"/>
<stop offset="1" stop-color="#BAD7F7" stop-opacity="0"/>
</linearGradient>
<linearGradient id="paint4_linear_94_80" x1="0" y1="397.563" x2="1900" y2="397.563" gradientUnits="userSpaceOnUse">
<stop stop-color="#BAD7F7" stop-opacity="0"/>
<stop offset="0.5" stop-color="#BAD7F7" stop-opacity="0.12"/>
<stop offset="1" stop-color="#BAD7F7" stop-opacity="0"/>
</linearGradient>
<linearGradient id="paint5_linear_94_80" x1="0" y1="450.071" x2="1900" y2="450.071" gradientUnits="userSpaceOnUse">
<stop stop-color="#BAD7F7" stop-opacity="0"/>
<stop offset="0.5" stop-color="#BAD7F7" stop-opacity="0.12"/>
<stop offset="1" stop-color="#BAD7F7" stop-opacity="0"/>
</linearGradient>
<linearGradient id="paint6_linear_94_80" x1="0" y1="780.371" x2="1900" y2="780.371" gradientUnits="userSpaceOnUse">
<stop stop-color="#BAD7F7" stop-opacity="0"/>
<stop offset="0.5" stop-color="#BAD7F7" stop-opacity="0.12"/>
<stop offset="1" stop-color="#BAD7F7" stop-opacity="0"/>
</linearGradient>
<linearGradient id="paint7_linear_94_80" x1="351.467" y1="65.3281" x2="351.467" y2="797.976" gradientUnits="userSpaceOnUse">
<stop offset="0.8" stop-color="#BAD7F7" stop-opacity="0.12"/>
<stop offset="1" stop-color="#BAD7F7" stop-opacity="0"/>
</linearGradient>
<linearGradient id="paint8_linear_94_80" x1="421.727" y1="65.3281" x2="421.727" y2="797.976" gradientUnits="userSpaceOnUse">
<stop offset="0.8" stop-color="#BAD7F7" stop-opacity="0.12"/>
<stop offset="1" stop-color="#BAD7F7" stop-opacity="0"/>
</linearGradient>
<linearGradient id="paint9_linear_94_80" x1="1484.88" y1="86.2891" x2="1484.88" y2="818.937" gradientUnits="userSpaceOnUse">
<stop offset="0.8" stop-color="#BAD7F7" stop-opacity="0.12"/>
<stop offset="1" stop-color="#BAD7F7" stop-opacity="0"/>
</linearGradient>
<linearGradient id="paint10_linear_94_80" x1="1555.14" y1="86.2891" x2="1555.14" y2="818.937" gradientUnits="userSpaceOnUse">
<stop offset="0.8" stop-color="#BAD7F7" stop-opacity="0.12"/>
<stop offset="1" stop-color="#BAD7F7" stop-opacity="0"/>
</linearGradient>
<linearGradient id="paint11_linear_94_80" x1="1899.51" y1="750.148" x2="1899.51" y2="1482.8" gradientUnits="userSpaceOnUse">
<stop offset="0.8" stop-color="#BAD7F7" stop-opacity="0.12"/>
<stop offset="1" stop-color="#BAD7F7" stop-opacity="0"/>
</linearGradient>
<clipPath id="clip0_94_80">
<rect width="1900" height="950" fill="white"/>
</clipPath>
</defs>
</svg>
