<svg width="155" height="155" viewBox="0 0 155 155" fill="none" xmlns="http://www.w3.org/2000/svg">
<rect opacity="0.4" x="77.3242" y="8.50635" width="0.387205" height="3.86603" fill="#DAE8FE"/>
<rect opacity="0.4" x="79.5742" y="8.53027" width="0.387392" height="3.86609" transform="rotate(1.875 79.5742 8.53027)" fill="#DAE8FE"/>
<rect opacity="0.4" x="81.8281" y="8.62695" width="0.386081" height="3.86628" transform="rotate(3.75 81.8281 8.62695)" fill="#DAE8FE"/>
<rect opacity="0.4" x="84.0703" y="8.79932" width="0.38708" height="3.86662" transform="rotate(5.625 84.0703 8.79932)" fill="#DAE8FE"/>
<rect opacity="0.4" x="86.3125" y="9.04395" width="0.386461" height="3.86713" transform="rotate(7.49999 86.3125 9.04395)" fill="#DAE8FE"/>
<rect opacity="0.4" x="88.5391" y="9.36133" width="0.386556" height="3.86753" transform="rotate(9.37498 88.5391 9.36133)" fill="#DAE8FE"/>
<rect opacity="0.4" x="90.7578" y="9.75244" width="0.386769" height="3.86611" transform="rotate(11.25 90.7578 9.75244)" fill="#DAE8FE"/>
<rect opacity="0.4" x="92.9609" y="10.2158" width="0.387367" height="3.86644" transform="rotate(13.125 92.9609 10.2158)" fill="#DAE8FE"/>
<rect opacity="0.4" x="95.1484" y="10.7515" width="0.385894" height="3.86551" transform="rotate(15 95.1484 10.7515)" fill="#DAE8FE"/>
<rect opacity="0.4" x="97.3203" y="11.3574" width="0.385868" height="3.86635" transform="rotate(16.875 97.3203 11.3574)" fill="#DAE8FE"/>
<rect opacity="0.4" x="99.4648" y="12.0337" width="0.387642" height="3.86627" transform="rotate(18.75 99.4648 12.0337)" fill="#DAE8FE"/>
<rect opacity="0.4" x="101.59" y="12.7798" width="0.387911" height="3.86644" transform="rotate(20.625 101.59 12.7798)" fill="#DAE8FE"/>
<rect opacity="0.4" x="103.691" y="13.5962" width="0.386742" height="3.86589" transform="rotate(22.5 103.691 13.5962)" fill="#DAE8FE"/>
<rect opacity="0.4" x="105.762" y="14.481" width="0.387039" height="3.86537" transform="rotate(24.375 105.762 14.481)" fill="#DAE8FE"/>
<rect opacity="0.4" x="107.801" y="15.4321" width="0.386712" height="3.86529" transform="rotate(26.25 107.801 15.4321)" fill="#DAE8FE"/>
<rect opacity="0.4" x="109.812" y="16.4492" width="0.386852" height="3.86757" transform="rotate(28.125 109.812 16.4492)" fill="#DAE8FE"/>
<rect opacity="0.4" x="111.785" y="17.5327" width="0.386457" height="3.86683" transform="rotate(30 111.785 17.5327)" fill="#DAE8FE"/>
<rect opacity="0.4" x="113.723" y="18.6802" width="0.386414" height="3.86577" transform="rotate(31.875 113.723 18.6802)" fill="#DAE8FE"/>
<rect opacity="0.4" x="115.625" y="19.8901" width="0.386164" height="3.8661" transform="rotate(33.75 115.625 19.8901)" fill="#DAE8FE"/>
<rect opacity="0.4" x="117.48" y="21.1602" width="0.386914" height="3.86658" transform="rotate(35.625 117.48 21.1602)" fill="#DAE8FE"/>
<rect opacity="0.4" x="119.301" y="22.4917" width="0.38642" height="3.86626" transform="rotate(37.5 119.301 22.4917)" fill="#DAE8FE"/>
<rect opacity="0.4" x="121.07" y="23.8818" width="0.386352" height="3.86579" transform="rotate(39.375 121.07 23.8818)" fill="#DAE8FE"/>
<rect opacity="0.4" x="122.797" y="25.3286" width="0.386711" height="3.86693" transform="rotate(41.25 122.797 25.3286)" fill="#DAE8FE"/>
<rect opacity="0.4" x="124.473" y="26.8315" width="0.387496" height="3.86646" transform="rotate(43.125 124.473 26.8315)" fill="#DAE8FE"/>
<rect opacity="0.4" x="126.102" y="28.3882" width="0.38729" height="3.86719" transform="rotate(45 126.102 28.3882)" fill="#DAE8FE"/>
<rect opacity="0.4" x="127.676" y="29.999" width="0.386034" height="3.86499" transform="rotate(46.875 127.676 29.999)" fill="#DAE8FE"/>
<rect opacity="0.4" x="129.199" y="31.6587" width="0.386711" height="3.86693" transform="rotate(48.75 129.199 31.6587)" fill="#DAE8FE"/>
<rect opacity="0.4" x="130.664" y="33.3677" width="0.386352" height="3.86606" transform="rotate(50.625 130.664 33.3677)" fill="#DAE8FE"/>
<rect opacity="0.4" x="132.074" y="35.1235" width="0.387642" height="3.86626" transform="rotate(52.5 132.074 35.1235)" fill="#DAE8FE"/>
<rect opacity="0.4" x="133.426" y="36.9253" width="0.386914" height="3.86495" transform="rotate(54.375 133.426 36.9253)" fill="#DAE8FE"/>
<rect opacity="0.4" x="134.719" y="38.7686" width="0.387834" height="3.8661" transform="rotate(56.25 134.719 38.7686)" fill="#DAE8FE"/>
<rect opacity="0.4" x="135.949" y="40.6548" width="0.386414" height="3.86747" transform="rotate(58.125 135.949 40.6548)" fill="#DAE8FE"/>
<rect opacity="0.4" x="137.117" y="42.5806" width="0.386457" height="3.86583" transform="rotate(60 137.117 42.5806)" fill="#DAE8FE"/>
<rect opacity="0.4" x="138.223" y="44.5425" width="0.386852" height="3.86663" transform="rotate(61.875 138.223 44.5425)" fill="#DAE8FE"/>
<rect opacity="0.4" x="139.262" y="46.541" width="0.385806" height="3.86529" transform="rotate(63.75 139.262 46.541)" fill="#DAE8FE"/>
<rect opacity="0.4" x="140.234" y="48.5708" width="0.38604" height="3.86537" transform="rotate(65.625 140.234 48.5708)" fill="#DAE8FE"/>
<rect opacity="0.4" x="141.145" y="50.6313" width="0.386742" height="3.86512" transform="rotate(67.5 141.145 50.6313)" fill="#DAE8FE"/>
<rect opacity="0.4" x="141.984" y="52.7217" width="0.386034" height="3.86644" transform="rotate(69.375 141.984 52.7217)" fill="#DAE8FE"/>
<rect opacity="0.4" x="142.754" y="54.8364" width="0.387642" height="3.86692" transform="rotate(71.25 142.754 54.8364)" fill="#DAE8FE"/>
<rect opacity="0.4" x="143.457" y="56.9775" width="0.387787" height="3.86635" transform="rotate(73.125 143.457 56.9775)" fill="#DAE8FE"/>
<rect opacity="0.4" x="144.086" y="59.1401" width="0.38641" height="3.86551" transform="rotate(75 144.086 59.1401)" fill="#DAE8FE"/>
<rect opacity="0.4" x="144.645" y="61.3208" width="0.387367" height="3.86689" transform="rotate(76.875 144.645 61.3208)" fill="#DAE8FE"/>
<rect opacity="0.4" x="145.133" y="63.5195" width="0.386769" height="3.86611" transform="rotate(78.75 145.133 63.5195)" fill="#DAE8FE"/>
<rect opacity="0.4" x="145.551" y="65.7329" width="0.386228" height="3.86753" transform="rotate(80.625 145.551 65.7329)" fill="#DAE8FE"/>
<rect opacity="0.4" x="145.891" y="67.9595" width="0.386727" height="3.86487" transform="rotate(82.5 145.891 67.9595)" fill="#DAE8FE"/>
<rect opacity="0.4" x="146.16" y="70.1948" width="0.38708" height="3.86662" transform="rotate(84.375 146.16 70.1948)" fill="#DAE8FE"/>
<rect opacity="0.4" x="146.359" y="72.4375" width="0.388083" height="3.86628" transform="rotate(86.25 146.359 72.4375)" fill="#DAE8FE"/>
<rect opacity="0.4" x="146.48" y="74.6865" width="0.38746" height="3.86609" transform="rotate(88.125 146.48 74.6865)" fill="#DAE8FE"/>
<rect opacity="0.4" x="146.531" y="76.9375" width="0.387205" height="3.86603" transform="rotate(90 146.531 76.9375)" fill="#DAE8FE"/>
<rect opacity="0.4" x="146.508" y="79.1904" width="0.385387" height="3.86609" transform="rotate(91.875 146.508 79.1904)" fill="#DAE8FE"/>
<rect opacity="0.4" x="146.406" y="81.4395" width="0.385951" height="3.86628" transform="rotate(93.75 146.406 81.4395)" fill="#DAE8FE"/>
<rect opacity="0.4" x="146.238" y="83.6841" width="0.38708" height="3.86642" transform="rotate(95.625 146.238 83.6841)" fill="#DAE8FE"/>
<rect opacity="0.4" x="145.992" y="85.9233" width="0.386461" height="3.86686" transform="rotate(97.5 145.992 85.9233)" fill="#DAE8FE"/>
<rect opacity="0.4" x="145.676" y="88.1548" width="0.386228" height="3.86555" transform="rotate(99.375 145.676 88.1548)" fill="#DAE8FE"/>
<rect opacity="0.4" x="145.285" y="90.3711" width="0.386769" height="3.86808" transform="rotate(101.25 145.285 90.3711)" fill="#DAE8FE"/>
<rect opacity="0.4" x="144.82" y="92.5762" width="0.385414" height="3.86689" transform="rotate(103.125 144.82 92.5762)" fill="#DAE8FE"/>
<rect opacity="0.4" x="144.285" y="94.7627" width="0.38641" height="3.86551" transform="rotate(105 144.285 94.7627)" fill="#DAE8FE"/>
<rect opacity="0.4" x="143.68" y="96.9316" width="0.385868" height="3.86577" transform="rotate(106.875 143.68 96.9316)" fill="#DAE8FE"/>
<rect opacity="0.4" x="143.004" y="99.0801" width="0.385743" height="3.86692" transform="rotate(108.75 143.004 99.0801)" fill="#DAE8FE"/>
<rect opacity="0.4" x="142.254" y="101.205" width="0.385329" height="3.86526" transform="rotate(110.625 142.254 101.205)" fill="#DAE8FE"/>
<rect opacity="0.4" x="141.441" y="103.304" width="0.386742" height="3.86774" transform="rotate(112.5 141.441 103.304)" fill="#DAE8FE"/>
<rect opacity="0.4" x="140.555" y="105.374" width="0.387039" height="3.86537" transform="rotate(114.375 140.555 105.374)" fill="#DAE8FE"/>
<rect opacity="0.4" x="139.605" y="107.417" width="0.386712" height="3.86797" transform="rotate(116.25 139.605 107.417)" fill="#DAE8FE"/>
<rect opacity="0.4" x="138.586" y="109.425" width="0.386852" height="3.86663" transform="rotate(118.125 138.586 109.425)" fill="#DAE8FE"/>
<rect opacity="0.4" x="137.504" y="111.399" width="0.38746" height="3.86583" transform="rotate(120 137.504 111.399)" fill="#DAE8FE"/>
<rect opacity="0.4" x="136.355" y="113.337" width="0.38747" height="3.86471" transform="rotate(121.875 136.355 113.337)" fill="#DAE8FE"/>
<rect opacity="0.4" x="135.145" y="115.237" width="0.386164" height="3.86498" transform="rotate(123.75 135.145 115.237)" fill="#DAE8FE"/>
<rect opacity="0.4" x="133.879" y="117.097" width="0.386456" height="3.86775" transform="rotate(125.625 133.879 117.097)" fill="#DAE8FE"/>
<rect opacity="0.4" x="132.543" y="118.913" width="0.38642" height="3.86626" transform="rotate(127.5 132.543 118.913)" fill="#DAE8FE"/>
<rect opacity="0.4" x="131.156" y="120.684" width="0.386352" height="3.86606" transform="rotate(129.375 131.156 120.684)" fill="#DAE8FE"/>
<rect opacity="0.4" x="129.707" y="122.409" width="0.386711" height="3.8656" transform="rotate(131.25 129.707 122.409)" fill="#DAE8FE"/>
<rect opacity="0.4" x="128.207" y="124.086" width="0.387496" height="3.86646" transform="rotate(133.125 128.207 124.086)" fill="#DAE8FE"/>
<rect opacity="0.4" x="126.648" y="125.713" width="0.385869" height="3.86435" transform="rotate(135 126.648 125.713)" fill="#DAE8FE"/>
<rect opacity="0.4" x="125.039" y="127.289" width="0.386034" height="3.86499" transform="rotate(136.875 125.039 127.289)" fill="#DAE8FE"/>
<rect opacity="0.4" x="123.379" y="128.811" width="0.386711" height="3.86693" transform="rotate(138.75 123.379 128.811)" fill="#DAE8FE"/>
<rect opacity="0.4" x="121.668" y="130.277" width="0.386352" height="3.86734" transform="rotate(140.625 121.668 130.277)" fill="#DAE8FE"/>
<rect opacity="0.4" x="119.914" y="131.688" width="0.38642" height="3.86749" transform="rotate(142.5 119.914 131.688)" fill="#DAE8FE"/>
<rect opacity="0.4" x="118.113" y="133.038" width="0.388083" height="3.86612" transform="rotate(144.375 118.113 133.038)" fill="#DAE8FE"/>
<rect opacity="0.4" x="116.266" y="134.33" width="0.386164" height="3.86498" transform="rotate(146.25 116.266 134.33)" fill="#DAE8FE"/>
<rect opacity="0.4" x="114.379" y="135.562" width="0.385768" height="3.86641" transform="rotate(148.125 114.379 135.562)" fill="#DAE8FE"/>
<rect opacity="0.4" x="112.457" y="136.729" width="0.38746" height="3.86683" transform="rotate(150 112.457 136.729)" fill="#DAE8FE"/>
<rect opacity="0.4" x="110.496" y="137.835" width="0.386852" height="3.8658" transform="rotate(151.875 110.496 137.835)" fill="#DAE8FE"/>
<rect opacity="0.4" x="108.496" y="138.876" width="0.386712" height="3.86708" transform="rotate(153.75 108.496 138.876)" fill="#DAE8FE"/>
<rect opacity="0.4" x="106.465" y="139.85" width="0.38604" height="3.86537" transform="rotate(155.625 106.465 139.85)" fill="#DAE8FE"/>
<rect opacity="0.4" x="104.406" y="140.758" width="0.385977" height="3.86774" transform="rotate(157.5 104.406 140.758)" fill="#DAE8FE"/>
<rect opacity="0.4" x="102.312" y="141.597" width="0.386034" height="3.86714" transform="rotate(159.375 102.312 141.597)" fill="#DAE8FE"/>
<rect opacity="0.4" x="100.199" y="142.367" width="0.385743" height="3.86627" transform="rotate(161.25 100.199 142.367)" fill="#DAE8FE"/>
<rect opacity="0.4" x="98.0586" y="143.067" width="0.387787" height="3.86635" transform="rotate(163.125 98.0586 143.067)" fill="#DAE8FE"/>
<rect opacity="0.4" x="95.8984" y="143.699" width="0.38641" height="3.86745" transform="rotate(165 95.8984 143.699)" fill="#DAE8FE"/>
<rect opacity="0.4" x="93.7148" y="144.259" width="0.386915" height="3.86689" transform="rotate(166.875 93.7148 144.259)" fill="#DAE8FE"/>
<rect opacity="0.4" x="91.5195" y="144.747" width="0.386379" height="3.86611" transform="rotate(168.75 91.5195 144.747)" fill="#DAE8FE"/>
<rect opacity="0.4" x="89.3047" y="145.162" width="0.388208" height="3.86753" transform="rotate(170.625 89.3047 145.162)" fill="#DAE8FE"/>
<rect opacity="0.4" x="87.0781" y="145.505" width="0.386461" height="3.86686" transform="rotate(172.5 87.0781 145.505)" fill="#DAE8FE"/>
<rect opacity="0.4" x="84.8438" y="145.773" width="0.38708" height="3.86662" transform="rotate(174.375 84.8438 145.773)" fill="#DAE8FE"/>
<rect opacity="0.4" x="82.5977" y="145.97" width="0.386081" height="3.86628" transform="rotate(176.25 82.5977 145.97)" fill="#DAE8FE"/>
<rect opacity="0.4" x="80.3516" y="146.095" width="0.387392" height="3.86609" transform="rotate(178.125 80.3516 146.095)" fill="#DAE8FE"/>
<rect opacity="0.4" x="78.0977" y="146.143" width="0.385199" height="3.86603" transform="rotate(180 78.0977 146.143)" fill="#DAE8FE"/>
<rect opacity="0.4" x="75.8477" y="146.119" width="0.387392" height="3.86609" transform="rotate(-178.125 75.8477 146.119)" fill="#DAE8FE"/>
<rect opacity="0.4" x="73.5977" y="146.022" width="0.388083" height="3.86628" transform="rotate(-176.25 73.5977 146.022)" fill="#DAE8FE"/>
<rect opacity="0.4" x="71.3516" y="145.85" width="0.38708" height="3.86662" transform="rotate(-174.375 71.3516 145.85)" fill="#DAE8FE"/>
<rect opacity="0.4" x="69.1133" y="145.605" width="0.386461" height="3.86713" transform="rotate(-172.5 69.1133 145.605)" fill="#DAE8FE"/>
<rect opacity="0.4" x="66.8828" y="145.288" width="0.386556" height="3.86753" transform="rotate(-170.625 66.8828 145.288)" fill="#DAE8FE"/>
<rect opacity="0.4" x="64.6641" y="144.897" width="0.386769" height="3.86611" transform="rotate(-168.75 64.6641 144.897)" fill="#DAE8FE"/>
<rect opacity="0.4" x="62.4609" y="144.434" width="0.387367" height="3.86689" transform="rotate(-166.875 62.4609 144.434)" fill="#DAE8FE"/>
<rect opacity="0.4" x="60.2734" y="143.898" width="0.385894" height="3.86551" transform="rotate(-165 60.2734 143.898)" fill="#DAE8FE"/>
<rect opacity="0.4" x="58.1055" y="143.292" width="0.387787" height="3.86577" transform="rotate(-163.125 58.1055 143.292)" fill="#DAE8FE"/>
<rect opacity="0.4" x="55.957" y="142.616" width="0.385743" height="3.86627" transform="rotate(-161.25 55.957 142.616)" fill="#DAE8FE"/>
<rect opacity="0.4" x="53.832" y="141.87" width="0.386034" height="3.86714" transform="rotate(-159.375 53.832 141.87)" fill="#DAE8FE"/>
<rect opacity="0.4" x="51.7344" y="141.053" width="0.386742" height="3.86512" transform="rotate(-157.5 51.7344 141.053)" fill="#DAE8FE"/>
<rect opacity="0.4" x="49.6602" y="140.168" width="0.38521" height="3.8662" transform="rotate(-155.625 49.6602 140.168)" fill="#DAE8FE"/>
<rect opacity="0.4" x="47.6211" y="139.217" width="0.386712" height="3.86529" transform="rotate(-153.75 47.6211 139.217)" fill="#DAE8FE"/>
<rect opacity="0.4" x="45.6133" y="138.2" width="0.386852" height="3.86663" transform="rotate(-151.875 45.6133 138.2)" fill="#DAE8FE"/>
<rect opacity="0.4" x="43.6367" y="137.117" width="0.384719" height="3.86683" transform="rotate(-150 43.6367 137.117)" fill="#DAE8FE"/>
<rect opacity="0.4" x="41.6992" y="135.969" width="0.384707" height="3.86577" transform="rotate(-148.125 41.6992 135.969)" fill="#DAE8FE"/>
<rect opacity="0.4" x="39.8008" y="134.759" width="0.387834" height="3.86498" transform="rotate(-146.25 39.8008 134.759)" fill="#DAE8FE"/>
<rect opacity="0.4" x="37.9414" y="133.489" width="0.386914" height="3.86658" transform="rotate(-144.375 37.9414 133.489)" fill="#DAE8FE"/>
<rect opacity="0.4" x="36.125" y="132.157" width="0.38642" height="3.86626" transform="rotate(-142.5 36.125 132.157)" fill="#DAE8FE"/>
<rect opacity="0.4" x="34.3516" y="130.767" width="0.384802" height="3.86579" transform="rotate(-140.625 34.3516 130.767)" fill="#DAE8FE"/>
<rect opacity="0.4" x="32.625" y="129.32" width="0.385204" height="3.86693" transform="rotate(-138.75 32.625 129.32)" fill="#DAE8FE"/>
<rect opacity="0.4" x="30.9492" y="127.818" width="0.387496" height="3.86646" transform="rotate(-136.875 30.9492 127.818)" fill="#DAE8FE"/>
<rect opacity="0.4" x="29.3242" y="126.261" width="0.388706" height="3.86577" transform="rotate(-135 29.3242 126.261)" fill="#DAE8FE"/>
<rect opacity="0.4" x="27.7461" y="124.65" width="0.384661" height="3.86646" transform="rotate(-133.125 27.7461 124.65)" fill="#DAE8FE"/>
<rect opacity="0.4" x="26.2266" y="122.991" width="0.386711" height="3.86693" transform="rotate(-131.25 26.2266 122.991)" fill="#DAE8FE"/>
<rect opacity="0.4" x="24.7578" y="121.281" width="0.386352" height="3.86606" transform="rotate(-129.375 24.7578 121.281)" fill="#DAE8FE"/>
<rect opacity="0.4" x="23.3477" y="119.526" width="0.38642" height="3.86626" transform="rotate(-127.5 23.3477 119.526)" fill="#DAE8FE"/>
<rect opacity="0.4" x="21.9961" y="117.724" width="0.386914" height="3.86658" transform="rotate(-125.625 21.9961 117.724)" fill="#DAE8FE"/>
<rect opacity="0.4" x="20.7031" y="115.88" width="0.387834" height="3.86776" transform="rotate(-123.75 20.7031 115.88)" fill="#DAE8FE"/>
<rect opacity="0.4" x="19.4766" y="113.995" width="0.38747" height="3.86577" transform="rotate(-121.875 19.4766 113.995)" fill="#DAE8FE"/>
<rect opacity="0.4" x="18.3047" y="112.069" width="0.386457" height="3.86583" transform="rotate(-120 18.3047 112.069)" fill="#DAE8FE"/>
<rect opacity="0.4" x="17.2031" y="110.107" width="0.386852" height="3.86486" transform="rotate(-118.125 17.2031 110.107)" fill="#DAE8FE"/>
<rect opacity="0.4" x="16.1602" y="108.108" width="0.384913" height="3.86529" transform="rotate(-116.25 16.1602 108.108)" fill="#DAE8FE"/>
<rect opacity="0.4" x="15.1875" y="106.078" width="0.38521" height="3.8672" transform="rotate(-114.375 15.1875 106.078)" fill="#DAE8FE"/>
<rect opacity="0.4" x="14.2812" y="104.018" width="0.386742" height="3.86697" transform="rotate(-112.5 14.2812 104.018)" fill="#DAE8FE"/>
<rect opacity="0.4" x="13.4414" y="101.927" width="0.386034" height="3.86456" transform="rotate(-110.625 13.4414 101.927)" fill="#DAE8FE"/>
<rect opacity="0.4" x="12.668" y="99.8125" width="0.387642" height="3.86692" transform="rotate(-108.75 12.668 99.8125)" fill="#DAE8FE"/>
<rect opacity="0.4" x="11.9688" y="97.6719" width="0.387787" height="3.86635" transform="rotate(-106.875 11.9688 97.6719)" fill="#DAE8FE"/>
<rect opacity="0.4" x="11.3398" y="95.5093" width="0.38641" height="3.86551" transform="rotate(-105 11.3398 95.5093)" fill="#DAE8FE"/>
<rect opacity="0.4" x="10.7773" y="93.3286" width="0.387367" height="3.86689" transform="rotate(-103.125 10.7773 93.3286)" fill="#DAE8FE"/>
<rect opacity="0.4" x="10.2891" y="91.1299" width="0.386769" height="3.86611" transform="rotate(-101.25 10.2891 91.1299)" fill="#DAE8FE"/>
<rect opacity="0.4" x="9.875" y="88.9165" width="0.386556" height="3.86555" transform="rotate(-99.375 9.875 88.9165)" fill="#DAE8FE"/>
<rect opacity="0.4" x="9.53125" y="86.6895" width="0.386461" height="3.86686" transform="rotate(-97.5 9.53125 86.6895)" fill="#DAE8FE"/>
<rect opacity="0.4" x="9.26172" y="84.4551" width="0.386888" height="3.86662" transform="rotate(-95.625 9.26172 84.4551)" fill="#DAE8FE"/>
<rect opacity="0.4" x="9.0625" y="82.2119" width="0.387953" height="3.86628" transform="rotate(-93.75 9.0625 82.2119)" fill="#DAE8FE"/>
<rect opacity="0.4" x="8.94141" y="79.9629" width="0.387392" height="3.86609" transform="rotate(-91.875 8.94141 79.9629)" fill="#DAE8FE"/>
<rect opacity="0.4" x="8.89062" y="77.7119" width="0.387205" height="3.86603" transform="rotate(-90 8.89062 77.7119)" fill="#DAE8FE"/>
<rect opacity="0.4" x="8.91797" y="75.459" width="0.385455" height="3.86609" transform="rotate(-88.125 8.91797 75.459)" fill="#DAE8FE"/>
<rect opacity="0.4" x="9.01562" y="73.21" width="0.386081" height="3.86628" transform="rotate(-86.25 9.01562 73.21)" fill="#DAE8FE"/>
<rect opacity="0.4" x="9.1875" y="70.9648" width="0.38708" height="3.86442" transform="rotate(-84.375 9.1875 70.9648)" fill="#DAE8FE"/>
<rect opacity="0.4" x="9.43359" y="68.7261" width="0.386461" height="3.86487" transform="rotate(-82.5 9.43359 68.7261)" fill="#DAE8FE"/>
<rect opacity="0.4" x="9.75" y="66.4946" width="0.386228" height="3.86555" transform="rotate(-80.625 9.75 66.4946)" fill="#DAE8FE"/>
<rect opacity="0.4" x="10.1406" y="64.2783" width="0.386379" height="3.86611" transform="rotate(-78.75 10.1406 64.2783)" fill="#DAE8FE"/>
<rect opacity="0.4" x="10.6016" y="62.0732" width="0.384959" height="3.86494" transform="rotate(-76.875 10.6016 62.0732)" fill="#DAE8FE"/>
<rect opacity="0.4" x="11.1367" y="59.8862" width="0.38641" height="3.86745" transform="rotate(-75 11.1367 59.8862)" fill="#DAE8FE"/>
<rect opacity="0.4" x="11.7422" y="57.7178" width="0.385868" height="3.86769" transform="rotate(-73.125 11.7422 57.7178)" fill="#DAE8FE"/>
<rect opacity="0.4" x="12.4219" y="55.5693" width="0.385743" height="3.86692" transform="rotate(-71.25 12.4219 55.5693)" fill="#DAE8FE"/>
<rect opacity="0.4" x="13.168" y="53.4443" width="0.386034" height="3.86714" transform="rotate(-69.375 13.168 53.4443)" fill="#DAE8FE"/>
<rect opacity="0.4" x="13.9844" y="51.3457" width="0.385976" height="3.86589" transform="rotate(-67.5 13.9844 51.3457)" fill="#DAE8FE"/>
<rect opacity="0.4" x="14.8672" y="49.2754" width="0.387865" height="3.8672" transform="rotate(-65.625 14.8672 49.2754)" fill="#DAE8FE"/>
<rect opacity="0.4" x="15.8203" y="47.2329" width="0.386712" height="3.86617" transform="rotate(-63.75 15.8203 47.2329)" fill="#DAE8FE"/>
<rect opacity="0.4" x="16.8359" y="45.2246" width="0.386852" height="3.86486" transform="rotate(-61.875 16.8359 45.2246)" fill="#DAE8FE"/>
<rect opacity="0.4" x="17.9219" y="43.2505" width="0.386457" height="3.86583" transform="rotate(-60 17.9219 43.2505)" fill="#DAE8FE"/>
<rect opacity="0.4" x="19.0664" y="41.3125" width="0.38747" height="3.86641" transform="rotate(-58.125 19.0664 41.3125)" fill="#DAE8FE"/>
<rect opacity="0.4" x="20.2734" y="39.4126" width="0.386164" height="3.86665" transform="rotate(-56.25 20.2734 39.4126)" fill="#DAE8FE"/>
<rect opacity="0.4" x="21.5469" y="37.5527" width="0.385283" height="3.86612" transform="rotate(-54.375 21.5469 37.5527)" fill="#DAE8FE"/>
<rect opacity="0.4" x="22.8789" y="35.7373" width="0.387642" height="3.86626" transform="rotate(-52.5 22.8789 35.7373)" fill="#DAE8FE"/>
<rect opacity="0.4" x="24.2656" y="33.9658" width="0.387626" height="3.86606" transform="rotate(-50.625 24.2656 33.9658)" fill="#DAE8FE"/>
<rect opacity="0.4" x="25.7148" y="32.2402" width="0.386711" height="3.8656" transform="rotate(-48.75 25.7148 32.2402)" fill="#DAE8FE"/>
<rect opacity="0.4" x="27.2188" y="30.563" width="0.387496" height="3.86499" transform="rotate(-46.875 27.2188 30.563)" fill="#DAE8FE"/>
<rect opacity="0.4" x="28.7773" y="28.936" width="0.385869" height="3.86577" transform="rotate(-45 28.7773 28.936)" fill="#DAE8FE"/>
<rect opacity="0.4" x="30.3828" y="27.3613" width="0.387496" height="3.86636" transform="rotate(-43.125 30.3828 27.3613)" fill="#DAE8FE"/>
<rect opacity="0.4" x="32.0469" y="25.8384" width="0.386711" height="3.8656" transform="rotate(-41.25 32.0469 25.8384)" fill="#DAE8FE"/>
<rect opacity="0.4" x="33.7539" y="24.3721" width="0.386352" height="3.86606" transform="rotate(-39.375 33.7539 24.3721)" fill="#DAE8FE"/>
<rect opacity="0.4" x="35.5117" y="22.9614" width="0.38642" height="3.86626" transform="rotate(-37.5 35.5117 22.9614)" fill="#DAE8FE"/>
<rect opacity="0.4" x="37.3125" y="21.6113" width="0.386456" height="3.86495" transform="rotate(-35.625 37.3125 21.6113)" fill="#DAE8FE"/>
<rect opacity="0.4" x="39.1562" y="20.3193" width="0.386164" height="3.8661" transform="rotate(-33.75 39.1562 20.3193)" fill="#DAE8FE"/>
<rect opacity="0.4" x="41.043" y="19.0874" width="0.38747" height="3.86747" transform="rotate(-31.875 41.043 19.0874)" fill="#DAE8FE"/>
<rect opacity="0.4" x="42.9688" y="17.9199" width="0.38746" height="3.86583" transform="rotate(-30 42.9688 17.9199)" fill="#DAE8FE"/>
<rect opacity="0.4" x="44.9297" y="16.8145" width="0.386852" height="3.86486" transform="rotate(-28.125 44.9297 16.8145)" fill="#DAE8FE"/>
<rect opacity="0.4" x="46.9258" y="15.7729" width="0.386712" height="3.86797" transform="rotate(-26.25 46.9258 15.7729)" fill="#DAE8FE"/>
<rect opacity="0.4" x="48.957" y="14.7998" width="0.387865" height="3.8662" transform="rotate(-24.375 48.957 14.7998)" fill="#DAE8FE"/>
<rect opacity="0.4" x="51.0195" y="13.8911" width="0.385977" height="3.86697" transform="rotate(-22.5 51.0195 13.8911)" fill="#DAE8FE"/>
<rect opacity="0.4" x="53.1094" y="13.0527" width="0.387911" height="3.86714" transform="rotate(-20.625 53.1094 13.0527)" fill="#DAE8FE"/>
<rect opacity="0.4" x="55.2266" y="12.2822" width="0.387642" height="3.86692" transform="rotate(-18.75 55.2266 12.2822)" fill="#DAE8FE"/>
<rect opacity="0.4" x="57.3633" y="11.582" width="0.385868" height="3.86577" transform="rotate(-16.875 57.3633 11.582)" fill="#DAE8FE"/>
<rect opacity="0.4" x="59.5234" y="10.9502" width="0.388348" height="3.86745" transform="rotate(-15 59.5234 10.9502)" fill="#DAE8FE"/>
<rect opacity="0.4" x="61.707" y="10.3901" width="0.384959" height="3.86644" transform="rotate(-13.125 61.707 10.3901)" fill="#DAE8FE"/>
<rect opacity="0.4" x="63.9062" y="9.90283" width="0.386379" height="3.86611" transform="rotate(-11.25 63.9062 9.90283)" fill="#DAE8FE"/>
<rect opacity="0.4" x="66.1211" y="9.4873" width="0.386228" height="3.86753" transform="rotate(-9.37498 66.1211 9.4873)" fill="#DAE8FE"/>
<rect opacity="0.4" x="68.3438" y="9.14453" width="0.386461" height="3.86713" transform="rotate(-7.49999 68.3438 9.14453)" fill="#DAE8FE"/>
<rect opacity="0.4" x="70.582" y="8.87549" width="0.385084" height="3.86662" transform="rotate(-5.625 70.582 8.87549)" fill="#DAE8FE"/>
<rect opacity="0.4" x="72.8242" y="8.67871" width="0.386081" height="3.86628" transform="rotate(-3.75 72.8242 8.67871)" fill="#DAE8FE"/>
<rect opacity="0.4" x="75.0742" y="8.55469" width="0.385387" height="3.86609" transform="rotate(-1.875 75.0742 8.55469)" fill="#DAE8FE"/>
</svg>
